<svg xmlns="http://www.w3.org/2000/svg" xmlns:xlink="http://www.w3.org/1999/xlink" width="250" zoomAndPan="magnify" viewBox="0 0 187.5 56.249996" height="75" preserveAspectRatio="xMidYMid meet" version="1.0"><defs><g/><clipPath id="cfa163872a"><path d="M 0.988281 0 L 186.019531 0 L 186.019531 55.511719 L 0.988281 55.511719 Z M 0.988281 0 " clip-rule="nonzero"/></clipPath><clipPath id="c3c8199285"><path d="M 10.628906 23 L 42.882812 23 L 42.882812 43.890625 L 10.628906 43.890625 Z M 10.628906 23 " clip-rule="nonzero"/></clipPath><clipPath id="bab335d8b5"><path d="M 18 11.613281 L 42.882812 11.613281 L 42.882812 26 L 18 26 Z M 18 11.613281 " clip-rule="nonzero"/></clipPath><clipPath id="fffc711156"><path d="M 144.113281 23 L 176.679688 23 L 176.679688 43.890625 L 144.113281 43.890625 Z M 144.113281 23 " clip-rule="nonzero"/></clipPath><clipPath id="e6a91c66a5"><path d="M 144.113281 11.613281 L 169 11.613281 L 169 26 L 144.113281 26 Z M 144.113281 11.613281 " clip-rule="nonzero"/></clipPath></defs><g clip-path="url(#cfa163872a)"><path fill="#ffffff" d="M 0.988281 0 L 186.019531 0 L 186.019531 55.511719 L 0.988281 55.511719 Z M 0.988281 0 " fill-opacity="1" fill-rule="nonzero"/><path fill="#ffffff" d="M 0.988281 0 L 186.019531 0 L 186.019531 55.511719 L 0.988281 55.511719 Z M 0.988281 0 " fill-opacity="1" fill-rule="nonzero"/></g><g clip-path="url(#c3c8199285)"><path fill="#ffb923" d="M 13.261719 23.316406 C 13.101562 23.261719 12.933594 23.222656 12.765625 23.207031 C 12.59375 23.191406 12.425781 23.191406 12.253906 23.214844 C 12.085938 23.238281 11.921875 23.28125 11.761719 23.34375 C 11.605469 23.40625 11.453125 23.488281 11.316406 23.585938 C 11.175781 23.683594 11.046875 23.796875 10.933594 23.925781 C 10.824219 24.054688 10.726562 24.191406 10.648438 24.34375 C 10.566406 24.496094 10.507812 24.652344 10.464844 24.820312 C 10.421875 24.984375 10.398438 25.152344 10.398438 25.324219 L 10.398438 29.53125 C 10.398438 30.0625 10.480469 30.578125 10.640625 31.082031 C 10.800781 31.585938 11.035156 32.054688 11.339844 32.488281 C 11.644531 32.917969 12.007812 33.292969 12.433594 33.613281 C 12.855469 33.929688 13.316406 34.175781 13.816406 34.351562 L 40.253906 43.640625 C 40.414062 43.695312 40.582031 43.734375 40.753906 43.75 C 40.921875 43.765625 41.09375 43.761719 41.265625 43.738281 C 41.433594 43.714844 41.601562 43.671875 41.757812 43.605469 C 41.917969 43.542969 42.070312 43.460938 42.210938 43.363281 C 42.347656 43.261719 42.476562 43.148438 42.589844 43.019531 C 42.699219 42.890625 42.796875 42.746094 42.875 42.59375 C 42.953125 42.441406 43.015625 42.28125 43.054688 42.117188 C 43.09375 41.949219 43.117188 41.777344 43.117188 41.605469 L 43.117188 36.027344 C 43.117188 35.695312 43.070312 35.375 42.96875 35.0625 C 42.871094 34.746094 42.726562 34.457031 42.535156 34.1875 C 42.347656 33.917969 42.121094 33.6875 41.855469 33.488281 C 41.59375 33.289062 41.304688 33.136719 40.996094 33.03125 L 25.894531 27.722656 Z M 13.261719 23.316406 " fill-opacity="1" fill-rule="nonzero"/></g><g clip-path="url(#bab335d8b5)"><path fill="#ffb923" d="M 43.117188 13.835938 C 43.113281 13.664062 43.09375 13.496094 43.054688 13.328125 C 43.011719 13.160156 42.953125 13 42.875 12.847656 C 42.792969 12.695312 42.699219 12.554688 42.585938 12.425781 C 42.472656 12.296875 42.347656 12.183594 42.207031 12.082031 C 42.066406 11.984375 41.917969 11.902344 41.757812 11.839844 C 41.597656 11.777344 41.433594 11.734375 41.261719 11.710938 C 41.09375 11.683594 40.921875 11.683594 40.75 11.699219 C 40.582031 11.714844 40.414062 11.753906 40.253906 11.808594 L 18.4375 19.464844 C 18.148438 19.578125 18.003906 19.785156 18.003906 20.09375 C 18.003906 20.40625 18.148438 20.613281 18.4375 20.722656 L 27.128906 23.789062 L 30.273438 24.890625 C 31.492188 25.316406 32.710938 25.316406 33.929688 24.890625 L 41 22.410156 C 41.3125 22.304688 41.597656 22.148438 41.859375 21.953125 C 42.125 21.753906 42.351562 21.523438 42.539062 21.253906 C 42.730469 20.984375 42.875 20.691406 42.972656 20.378906 C 43.070312 20.066406 43.117188 19.746094 43.117188 19.414062 Z M 43.117188 13.835938 " fill-opacity="1" fill-rule="nonzero"/></g><g fill="#000000" fill-opacity="1"><g transform="translate(43.936798, 26.574645)"><g><path d="M 5.710938 -7.75 C 5.546875 -8.023438 5.285156 -8.273438 4.929688 -8.484375 C 4.574219 -8.699219 4.125 -8.816406 3.589844 -8.816406 C 3.140625 -8.816406 2.75 -8.746094 2.394531 -8.605469 C 2.039062 -8.460938 1.753906 -8.261719 1.539062 -8.023438 C 1.304688 -7.785156 1.148438 -7.515625 1.066406 -7.21875 C 0.996094 -7.003906 0.972656 -6.804688 0.972656 -6.601562 C 0.972656 -6.507812 0.972656 -6.421875 0.996094 -6.328125 C 1.03125 -6.019531 1.148438 -5.773438 1.339844 -5.558594 C 1.527344 -5.34375 1.730469 -5.167969 1.957031 -5 C 2.167969 -4.835938 2.40625 -4.667969 2.667969 -4.527344 C 2.914062 -4.386719 3.164062 -4.242188 3.414062 -4.101562 C 3.648438 -3.957031 3.886719 -3.816406 4.125 -3.6875 C 4.335938 -3.542969 4.527344 -3.414062 4.679688 -3.292969 C 4.835938 -3.164062 4.941406 -3.058594 4.988281 -2.964844 C 5.035156 -2.867188 5.074219 -2.808594 5.074219 -2.773438 L 5.074219 -2.714844 C 5.074219 -2.691406 5.085938 -2.667969 5.097656 -2.621094 C 5.097656 -2.277344 4.964844 -1.96875 4.691406 -1.707031 C 4.410156 -1.421875 4.089844 -1.292969 3.722656 -1.292969 C 3.484375 -1.292969 3.234375 -1.328125 2.988281 -1.398438 C 2.726562 -1.46875 2.488281 -1.683594 2.25 -2.039062 C 2.238281 -2.050781 2.226562 -2.074219 2.214844 -2.097656 C 2.191406 -2.121094 2.179688 -2.132812 2.167969 -2.15625 C 2.121094 -2.179688 2.085938 -2.214844 2.039062 -2.25 C 1.992188 -2.277344 1.957031 -2.289062 1.90625 -2.3125 C 1.859375 -2.324219 1.8125 -2.335938 1.765625 -2.335938 C 1.707031 -2.335938 1.660156 -2.335938 1.613281 -2.324219 C 1.5625 -2.3125 1.515625 -2.300781 1.46875 -2.277344 C 1.421875 -2.25 1.375 -2.226562 1.339844 -2.203125 C 1.292969 -2.15625 1.269531 -2.121094 1.246094 -2.085938 C 1.207031 -2.039062 1.183594 -2.003906 1.160156 -1.957031 C 1.136719 -1.90625 1.125 -1.859375 1.125 -1.8125 L 1.125 -1.660156 C 1.125 -1.613281 1.148438 -1.5625 1.171875 -1.515625 C 1.183594 -1.46875 1.207031 -1.421875 1.246094 -1.375 C 1.601562 -0.828125 2.015625 -0.472656 2.511719 -0.320312 C 2.988281 -0.152344 3.390625 -0.0820312 3.722656 -0.0820312 C 4.171875 -0.0820312 4.597656 -0.203125 5 -0.4375 C 5.378906 -0.675781 5.6875 -0.984375 5.914062 -1.363281 C 6.03125 -1.5625 6.128906 -1.789062 6.199219 -2.027344 C 6.257812 -2.265625 6.28125 -2.5 6.28125 -2.761719 L 6.28125 -2.796875 C 6.28125 -3.105469 6.199219 -3.367188 6.03125 -3.601562 C 5.867188 -3.839844 5.675781 -4.042969 5.464844 -4.21875 C 5.25 -4.398438 5.011719 -4.5625 4.765625 -4.71875 C 4.503906 -4.859375 4.253906 -5.011719 4.007812 -5.15625 C 3.757812 -5.296875 3.519531 -5.429688 3.28125 -5.570312 C 3.046875 -5.710938 2.84375 -5.84375 2.679688 -5.972656 C 2.5 -6.09375 2.382812 -6.210938 2.3125 -6.304688 C 2.238281 -6.398438 2.191406 -6.472656 2.191406 -6.496094 C 2.167969 -6.613281 2.179688 -6.730469 2.226562 -6.851562 C 2.265625 -6.96875 2.335938 -7.085938 2.429688 -7.207031 C 2.523438 -7.300781 2.65625 -7.394531 2.84375 -7.476562 C 3.023438 -7.550781 3.269531 -7.597656 3.589844 -7.597656 C 3.980469 -7.597656 4.242188 -7.550781 4.363281 -7.476562 C 4.480469 -7.394531 4.585938 -7.265625 4.707031 -7.074219 C 4.71875 -7.050781 4.730469 -7.039062 4.753906 -7.015625 C 4.753906 -6.992188 4.777344 -6.96875 4.800781 -6.957031 C 4.835938 -6.921875 4.871094 -6.898438 4.917969 -6.875 C 4.953125 -6.839844 5 -6.816406 5.0625 -6.804688 L 5.203125 -6.777344 C 5.25 -6.777344 5.308594 -6.777344 5.355469 -6.792969 C 5.40625 -6.804688 5.453125 -6.828125 5.5 -6.851562 C 5.546875 -6.863281 5.582031 -6.886719 5.617188 -6.933594 C 5.652344 -6.957031 5.6875 -6.992188 5.722656 -7.039062 C 5.75 -7.074219 5.773438 -7.121094 5.796875 -7.171875 C 5.808594 -7.21875 5.820312 -7.265625 5.832031 -7.324219 C 5.832031 -7.371094 5.832031 -7.417969 5.832031 -7.464844 C 5.820312 -7.515625 5.808594 -7.574219 5.785156 -7.621094 C 5.761719 -7.65625 5.734375 -7.703125 5.710938 -7.75 Z M 4.527344 -6.066406 L 4.457031 -6.066406 C 4.433594 -6.066406 4.421875 -6.054688 4.421875 -6.054688 C 4.410156 -6.054688 4.398438 -6.042969 4.398438 -6.042969 L 4.375 -6.019531 C 4.363281 -6.007812 4.363281 -5.996094 4.363281 -5.996094 C 4.347656 -5.984375 4.347656 -5.972656 4.347656 -5.972656 L 4.347656 -5.902344 L 4.375 -5.878906 C 4.375 -5.867188 4.375 -5.855469 4.386719 -5.855469 C 4.386719 -5.84375 4.398438 -5.84375 4.421875 -5.84375 C 4.847656 -5.546875 5.238281 -5.285156 5.582031 -5.0625 C 5.925781 -4.824219 6.210938 -4.574219 6.433594 -4.3125 C 6.648438 -4.042969 6.816406 -3.734375 6.910156 -3.402344 C 7.003906 -3.058594 7.027344 -2.632812 6.980469 -2.121094 C 6.945312 -1.847656 6.851562 -1.539062 6.695312 -1.195312 C 6.53125 -0.839844 6.292969 -0.507812 5.984375 -0.226562 C 5.664062 0.0703125 5.273438 0.308594 4.8125 0.484375 C 4.347656 0.675781 3.804688 0.734375 3.164062 0.675781 L 3.128906 0.675781 C 3.117188 0.675781 3.105469 0.6875 3.105469 0.6875 C 3.082031 0.6875 3.070312 0.699219 3.070312 0.699219 C 3.058594 0.710938 3.058594 0.722656 3.058594 0.722656 L 3.035156 0.746094 C 3.035156 0.757812 3.023438 0.769531 3.023438 0.78125 L 3.023438 0.804688 C 3.023438 0.828125 3.023438 0.839844 3.035156 0.839844 C 3.035156 0.851562 3.035156 0.863281 3.046875 0.863281 L 3.070312 0.890625 L 3.09375 0.914062 C 3.09375 0.914062 3.105469 0.925781 3.117188 0.925781 L 3.152344 0.925781 C 3.308594 0.949219 3.460938 0.949219 3.613281 0.949219 C 4.089844 0.949219 4.515625 0.878906 4.894531 0.722656 C 5.390625 0.535156 5.820312 0.285156 6.152344 -0.0351562 C 6.484375 -0.34375 6.730469 -0.699219 6.910156 -1.078125 C 7.085938 -1.445312 7.195312 -1.789062 7.21875 -2.097656 C 7.242188 -2.265625 7.253906 -2.429688 7.253906 -2.59375 C 7.253906 -2.925781 7.207031 -3.210938 7.136719 -3.472656 C 7.027344 -3.839844 6.851562 -4.171875 6.613281 -4.46875 C 6.375 -4.753906 6.078125 -5.011719 5.734375 -5.261719 C 5.378906 -5.5 4.976562 -5.761719 4.550781 -6.042969 C 4.550781 -6.042969 4.539062 -6.054688 4.539062 -6.054688 C 4.527344 -6.054688 4.527344 -6.054688 4.527344 -6.066406 Z M 4.527344 -6.066406 "/></g></g></g><g fill="#000000" fill-opacity="1"><g transform="translate(51.247665, 26.574645)"><g><path d="M 2.382812 -8.273438 C 2.382812 -8.519531 2.191406 -8.652344 1.835938 -8.664062 C 1.8125 -8.664062 1.800781 -8.652344 1.800781 -8.652344 C 1.398438 -8.640625 1.195312 -8.507812 1.195312 -8.261719 C 1.183594 -4.847656 1.183594 -2.300781 1.183594 -0.605469 C 1.183594 -0.308594 1.375 -0.140625 1.765625 -0.117188 C 2.15625 -0.09375 2.371094 -0.273438 2.394531 -0.652344 L 2.394531 -3.117188 C 2.394531 -3.4375 2.464844 -3.613281 2.621094 -3.664062 C 2.761719 -3.710938 2.902344 -3.734375 3.023438 -3.734375 L 4.433594 -3.734375 C 4.550781 -3.734375 4.691406 -3.710938 4.859375 -3.664062 C 5.011719 -3.613281 5.097656 -3.425781 5.097656 -3.09375 L 5.097656 -0.605469 C 5.097656 -0.285156 5.285156 -0.117188 5.6875 -0.117188 C 5.699219 -0.105469 5.722656 -0.105469 5.75 -0.105469 C 6.105469 -0.105469 6.292969 -0.296875 6.304688 -0.652344 L 6.304688 -8.117188 C 6.304688 -8.472656 6.105469 -8.652344 5.710938 -8.652344 C 5.308594 -8.640625 5.109375 -8.425781 5.109375 -8.011719 C 5.097656 -6.933594 5.097656 -6.128906 5.097656 -5.582031 C 5.085938 -5.417969 5.035156 -5.261719 4.964844 -5.144531 C 4.871094 -5 4.679688 -4.941406 4.386719 -4.941406 L 2.9375 -4.941406 C 2.65625 -4.941406 2.5 -5.011719 2.464844 -5.167969 C 2.417969 -5.308594 2.394531 -5.464844 2.394531 -5.617188 L 2.394531 -8.191406 C 2.382812 -8.214844 2.382812 -8.238281 2.382812 -8.273438 Z M 0.460938 -9.71875 L 0.378906 -9.71875 C 0.367188 -9.71875 0.367188 -9.707031 0.367188 -9.707031 C 0.34375 -9.707031 0.332031 -9.695312 0.332031 -9.695312 C 0.320312 -9.683594 0.320312 -9.671875 0.320312 -9.671875 L 0.296875 -9.648438 L 0.296875 -0.78125 C 0.296875 -0.769531 0.296875 -0.757812 0.308594 -0.757812 C 0.308594 -0.734375 0.308594 -0.722656 0.320312 -0.722656 C 0.320312 -0.710938 0.332031 -0.710938 0.34375 -0.710938 C 0.34375 -0.699219 0.355469 -0.699219 0.378906 -0.699219 C 0.378906 -0.6875 0.390625 -0.6875 0.402344 -0.6875 L 0.4375 -0.6875 C 0.4375 -0.6875 0.449219 -0.6875 0.460938 -0.699219 C 0.460938 -0.699219 0.472656 -0.699219 0.496094 -0.710938 C 0.496094 -0.710938 0.507812 -0.722656 0.507812 -0.734375 L 0.535156 -0.757812 L 0.535156 -0.792969 C 0.535156 -0.792969 0.535156 -0.804688 0.535156 -0.816406 C 0.535156 -4.71875 0.546875 -7.644531 0.546875 -9.601562 L 0.535156 -9.613281 L 0.535156 -9.625 C 0.535156 -9.625 0.519531 -9.636719 0.519531 -9.660156 C 0.519531 -9.660156 0.507812 -9.671875 0.507812 -9.683594 C 0.496094 -9.683594 0.484375 -9.695312 0.484375 -9.695312 Z M 7.148438 -8.070312 C 7.136719 -8.070312 7.121094 -8.082031 7.121094 -8.082031 L 7.074219 -8.082031 L 7.0625 -8.070312 C 7.050781 -8.070312 7.039062 -8.058594 7.039062 -8.058594 C 7.015625 -8.046875 7.015625 -8.035156 7.015625 -8.035156 L 6.992188 -8.011719 C 6.992188 -8 6.980469 -7.988281 6.980469 -7.976562 L 6.980469 0.863281 C 6.980469 0.878906 6.992188 0.890625 6.992188 0.890625 L 7.039062 0.9375 C 7.039062 0.949219 7.050781 0.949219 7.0625 0.949219 C 7.0625 0.960938 7.074219 0.960938 7.097656 0.960938 L 7.121094 0.960938 C 7.136719 0.960938 7.148438 0.960938 7.160156 0.949219 C 7.160156 0.949219 7.171875 0.9375 7.183594 0.9375 L 7.207031 0.914062 C 7.207031 0.914062 7.21875 0.902344 7.21875 0.890625 C 7.21875 0.878906 7.230469 0.863281 7.230469 0.851562 L 7.230469 -7.988281 C 7.21875 -7.988281 7.21875 -8 7.21875 -8.011719 C 7.207031 -8.023438 7.195312 -8.035156 7.195312 -8.046875 L 7.171875 -8.058594 C 7.160156 -8.058594 7.148438 -8.070312 7.148438 -8.070312 Z M 7.148438 -8.070312 "/></g></g></g><g fill="#000000" fill-opacity="1"><g transform="translate(58.795513, 26.574645)"><g><path d="M 1.777344 -8.746094 L 1.742188 -8.746094 C 1.71875 -8.746094 1.707031 -8.746094 1.71875 -8.746094 L 1.730469 -8.746094 C 1.730469 -8.746094 1.71875 -8.734375 1.683594 -8.734375 C 1.636719 -8.722656 1.601562 -8.710938 1.578125 -8.710938 C 1.527344 -8.6875 1.480469 -8.664062 1.445312 -8.640625 C 1.398438 -8.605469 1.351562 -8.570312 1.328125 -8.546875 C 1.292969 -8.496094 1.269531 -8.460938 1.246094 -8.414062 C 1.222656 -8.367188 1.195312 -8.320312 1.195312 -8.273438 C 1.183594 -4.777344 1.171875 -2.15625 1.171875 -0.414062 C 1.171875 -0.164062 1.339844 -0.046875 1.695312 -0.046875 L 1.777344 -0.046875 C 2.167969 -0.0585938 2.371094 -0.203125 2.382812 -0.460938 L 2.382812 -2.605469 C 2.382812 -2.75 2.394531 -2.878906 2.441406 -3.011719 C 2.464844 -3.128906 2.605469 -3.199219 2.84375 -3.199219 L 3.257812 -3.199219 C 3.542969 -3.199219 3.722656 -3.140625 3.816406 -3.023438 C 3.898438 -2.902344 4.007812 -2.703125 4.136719 -2.441406 C 4.5625 -1.515625 4.894531 -0.816406 5.109375 -0.367188 C 5.121094 -0.34375 5.132812 -0.320312 5.144531 -0.296875 C 5.15625 -0.273438 5.167969 -0.25 5.191406 -0.238281 C 5.308594 -0.0585938 5.535156 -0.0351562 5.855469 -0.152344 C 6.164062 -0.273438 6.292969 -0.4375 6.257812 -0.652344 L 6.234375 -0.792969 C 6.210938 -0.839844 6.199219 -0.890625 6.175781 -0.9375 C 5.773438 -1.789062 5.464844 -2.441406 5.273438 -2.867188 C 5.214844 -2.988281 5.179688 -3.105469 5.167969 -3.222656 C 5.15625 -3.332031 5.238281 -3.449219 5.429688 -3.589844 C 5.488281 -3.625 5.546875 -3.675781 5.605469 -3.722656 C 5.652344 -3.769531 5.699219 -3.828125 5.75 -3.875 C 5.914062 -4.066406 6.042969 -4.277344 6.140625 -4.515625 C 6.234375 -4.753906 6.28125 -4.988281 6.292969 -5.238281 L 6.292969 -5.296875 C 6.292969 -5.308594 6.28125 -5.34375 6.28125 -5.390625 C 6.28125 -5.960938 6.292969 -6.398438 6.292969 -6.695312 L 6.292969 -6.742188 C 6.292969 -6.753906 6.28125 -6.792969 6.28125 -6.839844 C 6.257812 -7.171875 6.09375 -7.539062 5.796875 -7.929688 C 5.488281 -8.320312 5.023438 -8.582031 4.421875 -8.722656 C 4.398438 -8.722656 4.375 -8.734375 4.363281 -8.734375 C 4.347656 -8.734375 4.3125 -8.734375 4.265625 -8.746094 Z M 3.070312 -4.421875 C 2.925781 -4.421875 2.785156 -4.433594 2.621094 -4.480469 C 2.453125 -4.527344 2.382812 -4.707031 2.382812 -5.023438 L 2.382812 -6.96875 C 2.382812 -7.050781 2.40625 -7.171875 2.453125 -7.3125 C 2.488281 -7.453125 2.679688 -7.539062 3.011719 -7.539062 L 4.195312 -7.539062 C 4.5625 -7.441406 4.800781 -7.3125 4.90625 -7.148438 C 5 -6.980469 5.0625 -6.804688 5.085938 -6.636719 L 5.085938 -5.296875 C 5.085938 -5.191406 5.0625 -5.085938 5.011719 -4.976562 C 4.964844 -4.859375 4.90625 -4.753906 4.835938 -4.667969 C 4.765625 -4.585938 4.679688 -4.527344 4.597656 -4.480469 C 4.503906 -4.433594 4.410156 -4.421875 4.300781 -4.421875 Z M 7.21875 -7.183594 L 7.148438 -7.183594 C 7.136719 -7.183594 7.136719 -7.171875 7.136719 -7.171875 C 7.109375 -7.171875 7.097656 -7.160156 7.097656 -7.160156 C 7.085938 -7.148438 7.085938 -7.136719 7.085938 -7.136719 L 7.0625 -7.109375 L 7.0625 -7.074219 C 7.0625 -6.175781 7.050781 -5.511719 7.050781 -5.0625 C 7.039062 -4.859375 7.003906 -4.65625 6.933594 -4.457031 C 6.863281 -4.242188 6.765625 -4.042969 6.660156 -3.863281 C 6.542969 -3.675781 6.421875 -3.519531 6.292969 -3.390625 C 6.164062 -3.257812 6.042969 -3.175781 5.949219 -3.128906 L 5.9375 -3.117188 C 5.925781 -3.117188 5.925781 -3.105469 5.925781 -3.105469 L 5.902344 -3.082031 C 5.890625 -3.070312 5.890625 -3.058594 5.890625 -3.058594 C 5.878906 -3.046875 5.878906 -3.035156 5.878906 -3.023438 L 5.878906 -3 C 5.878906 -2.976562 5.878906 -2.964844 5.890625 -2.964844 C 5.890625 -2.949219 5.890625 -2.9375 5.902344 -2.9375 C 7.039062 -0.925781 7.882812 0.59375 8.449219 1.589844 L 8.460938 1.601562 C 8.460938 1.613281 8.460938 1.613281 8.472656 1.613281 C 8.472656 1.625 8.484375 1.636719 8.484375 1.636719 C 8.484375 1.648438 8.496094 1.660156 8.519531 1.660156 C 8.519531 1.660156 8.535156 1.671875 8.546875 1.671875 L 8.582031 1.671875 C 8.582031 1.671875 8.59375 1.671875 8.605469 1.660156 C 8.617188 1.660156 8.628906 1.660156 8.640625 1.648438 C 8.640625 1.648438 8.652344 1.648438 8.664062 1.636719 C 8.664062 1.636719 8.675781 1.625 8.675781 1.613281 C 8.675781 1.601562 8.6875 1.589844 8.6875 1.578125 C 8.6875 1.578125 8.699219 1.5625 8.699219 1.550781 C 8.699219 1.539062 8.6875 1.527344 8.6875 1.515625 C 8.6875 1.515625 8.675781 1.503906 8.675781 1.480469 C 7.5625 -0.496094 6.71875 -1.980469 6.164062 -2.976562 C 6.28125 -3.046875 6.410156 -3.152344 6.53125 -3.28125 C 6.648438 -3.414062 6.765625 -3.566406 6.875 -3.734375 C 6.992188 -3.921875 7.085938 -4.136719 7.171875 -4.375 C 7.242188 -4.597656 7.289062 -4.824219 7.300781 -5.0625 L 7.300781 -7.085938 C 7.300781 -7.097656 7.289062 -7.109375 7.289062 -7.121094 C 7.289062 -7.121094 7.277344 -7.136719 7.277344 -7.148438 L 7.253906 -7.171875 C 7.242188 -7.171875 7.230469 -7.171875 7.21875 -7.183594 Z M 7.21875 -7.183594 "/></g></g></g><g fill="#000000" fill-opacity="1"><g transform="translate(66.355211, 26.574645)"><g><path d="M 2.464844 -8.164062 C 2.464844 -8.472656 2.25 -8.617188 1.847656 -8.605469 C 1.445312 -8.582031 1.246094 -8.402344 1.257812 -8.070312 C 1.257812 -5.582031 1.246094 -3.710938 1.246094 -2.464844 C 1.246094 -2.027344 1.328125 -1.648438 1.503906 -1.316406 C 1.671875 -0.984375 1.894531 -0.722656 2.167969 -0.535156 C 2.429688 -0.34375 2.726562 -0.214844 3.035156 -0.140625 C 3.332031 -0.0703125 3.613281 -0.046875 3.898438 -0.046875 C 4.207031 -0.046875 4.527344 -0.0820312 4.835938 -0.179688 C 5.132812 -0.273438 5.40625 -0.414062 5.664062 -0.617188 C 5.914062 -0.804688 6.117188 -1.054688 6.28125 -1.363281 C 6.421875 -1.648438 6.496094 -1.957031 6.496094 -2.300781 L 6.496094 -8.164062 C 6.496094 -8.4375 6.28125 -8.582031 5.878906 -8.605469 C 5.855469 -8.605469 5.832031 -8.617188 5.820312 -8.617188 C 5.453125 -8.605469 5.273438 -8.4375 5.285156 -8.117188 L 5.285156 -2.324219 C 5.285156 -2.3125 5.285156 -2.277344 5.296875 -2.226562 C 5.273438 -2.085938 5.238281 -1.957031 5.191406 -1.859375 C 5.144531 -1.765625 5.050781 -1.671875 4.929688 -1.578125 C 4.8125 -1.480469 4.65625 -1.398438 4.46875 -1.339844 C 4.277344 -1.28125 4.089844 -1.257812 3.898438 -1.257812 C 3.710938 -1.257812 3.519531 -1.28125 3.332031 -1.328125 C 3.140625 -1.363281 2.988281 -1.421875 2.867188 -1.515625 C 2.738281 -1.601562 2.644531 -1.707031 2.570312 -1.847656 C 2.5 -1.980469 2.464844 -2.179688 2.464844 -2.464844 Z M 7.324219 -7.859375 L 7.242188 -7.859375 L 7.230469 -7.847656 C 7.207031 -7.835938 7.195312 -7.820312 7.195312 -7.820312 C 7.183594 -7.820312 7.183594 -7.808594 7.183594 -7.796875 C 7.171875 -7.785156 7.171875 -7.773438 7.171875 -7.773438 C 7.160156 -7.761719 7.160156 -7.75 7.160156 -7.75 L 7.160156 -2.121094 C 7.160156 -1.992188 7.121094 -1.765625 7.074219 -1.457031 C 7.015625 -1.148438 6.875 -0.828125 6.636719 -0.519531 C 6.398438 -0.203125 6.042969 0.0703125 5.570312 0.296875 C 5.097656 0.535156 4.421875 0.617188 3.542969 0.570312 L 3.53125 0.570312 C 3.519531 0.570312 3.519531 0.582031 3.519531 0.582031 L 3.484375 0.582031 L 3.4375 0.628906 C 3.425781 0.640625 3.425781 0.652344 3.425781 0.652344 C 3.414062 0.664062 3.414062 0.675781 3.414062 0.675781 L 3.414062 0.710938 C 3.414062 0.722656 3.414062 0.734375 3.425781 0.746094 C 3.425781 0.757812 3.425781 0.769531 3.4375 0.769531 L 3.460938 0.792969 C 3.460938 0.804688 3.472656 0.804688 3.484375 0.804688 C 3.484375 0.816406 3.496094 0.816406 3.507812 0.816406 L 3.542969 0.816406 C 3.6875 0.828125 3.816406 0.828125 3.945312 0.828125 C 4.65625 0.828125 5.226562 0.734375 5.675781 0.519531 C 6.199219 0.273438 6.578125 -0.0234375 6.839844 -0.367188 C 7.097656 -0.710938 7.253906 -1.054688 7.3125 -1.410156 C 7.371094 -1.742188 7.40625 -1.980469 7.40625 -2.121094 L 7.40625 -7.761719 C 7.394531 -7.761719 7.394531 -7.773438 7.394531 -7.796875 L 7.371094 -7.820312 C 7.371094 -7.820312 7.359375 -7.835938 7.359375 -7.847656 C 7.335938 -7.847656 7.324219 -7.847656 7.324219 -7.859375 Z M 7.324219 -7.859375 "/></g></g></g><g fill="#000000" fill-opacity="1"><g transform="translate(74.151889, 26.574645)"><g><path d="M 6.164062 -8.769531 C 4.679688 -8.769531 3.578125 -8.769531 2.84375 -8.769531 C 2.109375 -8.769531 1.695312 -8.769531 1.625 -8.78125 L 1.601562 -8.78125 C 1.292969 -8.769531 1.136719 -8.570312 1.136719 -8.191406 L 1.136719 -8.175781 C 1.136719 -7.761719 1.328125 -7.5625 1.695312 -7.574219 L 2.679688 -7.574219 C 2.773438 -7.574219 2.914062 -7.527344 3.09375 -7.453125 C 3.257812 -7.371094 3.34375 -7.160156 3.355469 -6.816406 L 3.355469 -0.652344 C 3.355469 -0.238281 3.554688 -0.0234375 3.96875 -0.0234375 C 4.375 -0.0234375 4.574219 -0.25 4.5625 -0.699219 L 4.5625 -6.921875 C 4.5625 -7.0625 4.585938 -7.207031 4.632812 -7.347656 C 4.667969 -7.492188 4.835938 -7.5625 5.121094 -7.5625 L 6.210938 -7.5625 C 6.234375 -7.5625 6.257812 -7.5625 6.28125 -7.574219 C 6.304688 -7.574219 6.328125 -7.585938 6.363281 -7.585938 C 6.578125 -7.609375 6.683594 -7.808594 6.683594 -8.191406 L 6.683594 -8.214844 C 6.683594 -8.582031 6.507812 -8.769531 6.164062 -8.769531 Z M 6.804688 -7.015625 L 5.902344 -7.015625 C 5.761719 -7.015625 5.628906 -6.980469 5.535156 -6.933594 C 5.441406 -6.886719 5.355469 -6.816406 5.308594 -6.742188 C 5.25 -6.660156 5.214844 -6.578125 5.191406 -6.496094 C 5.167969 -6.421875 5.167969 -6.351562 5.167969 -6.292969 L 5.167969 1.433594 C 5.167969 1.445312 5.179688 1.457031 5.179688 1.457031 C 5.179688 1.480469 5.191406 1.492188 5.203125 1.492188 C 5.203125 1.503906 5.214844 1.503906 5.226562 1.503906 C 5.226562 1.515625 5.238281 1.515625 5.25 1.515625 C 5.25 1.527344 5.261719 1.527344 5.285156 1.527344 L 5.308594 1.527344 C 5.320312 1.527344 5.332031 1.527344 5.34375 1.515625 C 5.34375 1.515625 5.355469 1.515625 5.367188 1.503906 L 5.390625 1.480469 C 5.390625 1.480469 5.40625 1.46875 5.40625 1.457031 C 5.40625 1.445312 5.417969 1.433594 5.417969 1.421875 L 5.417969 -6.304688 C 5.417969 -6.328125 5.417969 -6.375 5.429688 -6.433594 C 5.441406 -6.484375 5.464844 -6.542969 5.5 -6.589844 C 5.535156 -6.636719 5.582031 -6.671875 5.640625 -6.71875 C 5.699219 -6.742188 5.785156 -6.765625 5.902344 -6.765625 L 6.851562 -6.765625 C 6.851562 -6.765625 6.863281 -6.777344 6.875 -6.777344 L 6.898438 -6.804688 C 6.898438 -6.804688 6.910156 -6.804688 6.921875 -6.828125 C 6.921875 -6.828125 6.933594 -6.839844 6.933594 -6.851562 C 6.933594 -6.851562 6.945312 -6.863281 6.945312 -6.875 L 6.945312 -6.910156 C 6.933594 -6.910156 6.933594 -6.921875 6.933594 -6.945312 L 6.910156 -6.96875 C 6.910156 -6.96875 6.898438 -6.980469 6.898438 -6.992188 C 6.886719 -6.992188 6.875 -6.992188 6.863281 -7.003906 C 6.851562 -7.003906 6.839844 -7.003906 6.839844 -7.015625 Z M 6.804688 -7.015625 "/></g></g></g><g fill="#000000" fill-opacity="1"><g transform="translate(81.948568, 26.574645)"><g><path d="M 2.40625 -8.117188 C 2.40625 -8.4375 2.203125 -8.605469 1.824219 -8.605469 L 1.8125 -8.605469 C 1.410156 -8.59375 1.207031 -8.402344 1.207031 -8.023438 C 1.195312 -4.730469 1.195312 -2.25 1.195312 -0.605469 C 1.195312 -0.367188 1.386719 -0.226562 1.789062 -0.203125 L 1.894531 -0.203125 C 2.214844 -0.203125 2.382812 -0.34375 2.40625 -0.652344 Z M 0.484375 -10.277344 C 0.460938 -10.277344 0.449219 -10.289062 0.449219 -10.289062 L 0.402344 -10.289062 C 0.390625 -10.277344 0.378906 -10.277344 0.378906 -10.277344 L 0.367188 -10.261719 C 0.355469 -10.261719 0.34375 -10.25 0.34375 -10.25 C 0.332031 -10.238281 0.332031 -10.226562 0.332031 -10.226562 C 0.320312 -10.214844 0.320312 -10.203125 0.320312 -10.191406 C 0.308594 -10.179688 0.308594 -10.167969 0.308594 -10.167969 L 0.308594 -1.363281 C 0.308594 -1.351562 0.308594 -1.351562 0.320312 -1.351562 C 0.320312 -1.328125 0.320312 -1.316406 0.332031 -1.316406 C 0.332031 -1.304688 0.332031 -1.292969 0.34375 -1.292969 L 0.367188 -1.269531 C 0.367188 -1.257812 0.378906 -1.257812 0.390625 -1.257812 L 0.425781 -1.257812 L 0.4375 -1.246094 C 0.4375 -1.246094 0.449219 -1.257812 0.460938 -1.257812 L 0.484375 -1.257812 L 0.507812 -1.28125 L 0.535156 -1.304688 C 0.535156 -1.304688 0.546875 -1.316406 0.546875 -1.328125 C 0.546875 -1.328125 0.558594 -1.339844 0.558594 -1.351562 L 0.558594 -10.191406 C 0.558594 -10.191406 0.546875 -10.203125 0.546875 -10.214844 C 0.546875 -10.214844 0.535156 -10.226562 0.535156 -10.238281 L 0.507812 -10.261719 C 0.496094 -10.261719 0.484375 -10.277344 0.484375 -10.277344 Z M 0.484375 -10.277344 "/></g></g></g><g fill="#000000" fill-opacity="1"><g transform="translate(85.598077, 26.574645)"><g/></g></g><g fill="#000000" fill-opacity="1"><g transform="translate(92.198001, 26.574645)"><g><path d="M 6.886719 -14.328125 C 6.886719 -14.449219 6.828125 -14.566406 6.730469 -14.683594 C 6.636719 -14.777344 6.496094 -14.839844 6.328125 -14.839844 L 6.304688 -14.839844 C 6.117188 -14.839844 5.972656 -14.777344 5.878906 -14.683594 C 5.761719 -14.578125 5.699219 -14.449219 5.675781 -14.292969 C 5.652344 -9.550781 5.640625 -6.007812 5.640625 -3.636719 C 5.628906 -3.34375 5.523438 -3.210938 5.332031 -3.234375 C 5.132812 -3.257812 4.988281 -3.355469 4.917969 -3.542969 C 4.078125 -5.675781 3.449219 -7.289062 3.035156 -8.367188 C 3.023438 -8.390625 3.011719 -8.414062 3 -8.4375 C 2.988281 -8.460938 2.976562 -8.472656 2.964844 -8.496094 L 2.855469 -8.605469 C 2.808594 -8.640625 2.773438 -8.675781 2.726562 -8.699219 C 2.679688 -8.710938 2.632812 -8.722656 2.582031 -8.734375 C 2.535156 -8.746094 2.488281 -8.757812 2.441406 -8.757812 L 1.824219 -8.757812 C 1.800781 -8.757812 1.777344 -8.746094 1.753906 -8.746094 C 1.730469 -8.746094 1.707031 -8.734375 1.683594 -8.734375 C 1.636719 -8.710938 1.589844 -8.699219 1.539062 -8.675781 C 1.492188 -8.652344 1.445312 -8.617188 1.421875 -8.59375 C 1.375 -8.558594 1.339844 -8.519531 1.316406 -8.472656 C 1.292969 -8.425781 1.269531 -8.390625 1.257812 -8.34375 C 1.234375 -8.296875 1.234375 -8.238281 1.234375 -8.191406 C 1.222656 -8.140625 1.222656 -8.082031 1.234375 -8.035156 C 1.234375 -1.765625 1.222656 2.9375 1.222656 6.066406 C 1.222656 6.199219 1.269531 6.304688 1.363281 6.375 C 1.457031 6.460938 1.578125 6.519531 1.742188 6.542969 C 1.789062 6.554688 1.824219 6.554688 1.871094 6.554688 C 1.992188 6.554688 2.097656 6.53125 2.191406 6.460938 C 2.3125 6.375 2.394531 6.234375 2.429688 6.019531 L 2.429688 -4.707031 C 2.40625 -4.882812 2.488281 -5.023438 2.667969 -5.121094 C 2.832031 -5.214844 2.976562 -5.132812 3.09375 -4.894531 C 3.875 -2.902344 4.457031 -1.410156 4.847656 -0.414062 L 4.871094 -0.34375 C 4.882812 -0.320312 4.894531 -0.296875 4.917969 -0.285156 C 4.941406 -0.238281 4.976562 -0.203125 5.023438 -0.164062 C 5.0625 -0.128906 5.097656 -0.105469 5.144531 -0.0820312 L 5.285156 -0.0351562 C 5.332031 -0.0234375 5.390625 -0.0234375 5.441406 -0.0234375 L 6.316406 -0.0234375 L 6.386719 -0.046875 C 6.433594 -0.0585938 6.484375 -0.0820312 6.53125 -0.105469 C 6.578125 -0.128906 6.613281 -0.152344 6.648438 -0.191406 C 6.683594 -0.214844 6.71875 -0.261719 6.742188 -0.308594 C 6.765625 -0.34375 6.792969 -0.390625 6.816406 -0.4375 C 6.828125 -0.484375 6.839844 -0.535156 6.839844 -0.59375 L 6.839844 -0.734375 C 6.863281 -7.527344 6.875 -12.054688 6.886719 -14.328125 Z M 7.667969 -10.0625 C 7.65625 -10.0625 7.644531 -10.074219 7.632812 -10.074219 L 7.597656 -10.074219 C 7.585938 -10.074219 7.585938 -10.0625 7.585938 -10.0625 C 7.5625 -10.0625 7.550781 -10.050781 7.550781 -10.050781 L 7.527344 -10.027344 C 7.527344 -10.015625 7.515625 -10.003906 7.515625 -10.003906 C 7.503906 -9.992188 7.503906 -9.980469 7.503906 -9.980469 L 7.503906 -0.449219 C 7.503906 -0.414062 7.492188 -0.332031 7.464844 -0.203125 C 7.441406 -0.0703125 7.40625 0.0585938 7.335938 0.191406 C 7.265625 0.320312 7.171875 0.425781 7.050781 0.519531 C 6.933594 0.628906 6.753906 0.675781 6.542969 0.675781 L 5.203125 0.675781 C 5.011719 0.675781 4.859375 0.652344 4.765625 0.59375 C 4.644531 0.546875 4.5625 0.472656 4.503906 0.390625 C 4.433594 0.320312 4.386719 0.226562 4.335938 0.117188 C 4.289062 0.0234375 4.253906 -0.0820312 4.207031 -0.179688 L 4.195312 -0.191406 L 4.195312 -0.203125 C 3.734375 -1.375 3.390625 -2.25 3.164062 -2.84375 L 3.164062 -2.855469 C 3.164062 -2.855469 3.152344 -2.867188 3.152344 -2.867188 C 3.152344 -2.867188 3.140625 -2.878906 3.140625 -2.890625 L 3.117188 -2.914062 C 3.105469 -2.914062 3.09375 -2.925781 3.082031 -2.925781 L 3.023438 -2.925781 C 3.011719 -2.925781 3 -2.914062 3 -2.914062 C 2.976562 -2.914062 2.964844 -2.902344 2.964844 -2.902344 C 2.949219 -2.890625 2.949219 -2.878906 2.949219 -2.878906 C 2.9375 -2.867188 2.9375 -2.855469 2.9375 -2.84375 C 2.925781 -2.832031 2.925781 -2.820312 2.925781 -2.820312 L 2.925781 -2.785156 C 2.925781 -2.773438 2.925781 -2.761719 2.9375 -2.761719 L 3.96875 -0.09375 L 3.96875 -0.0820312 L 3.980469 -0.0703125 C 4.019531 0.0234375 4.066406 0.117188 4.113281 0.226562 C 4.160156 0.34375 4.21875 0.449219 4.3125 0.546875 C 4.398438 0.664062 4.515625 0.746094 4.65625 0.816406 C 4.800781 0.890625 4.976562 0.925781 5.203125 0.925781 L 6.542969 0.925781 C 6.804688 0.925781 7.027344 0.863281 7.195312 0.734375 C 7.359375 0.605469 7.476562 0.460938 7.5625 0.296875 C 7.632812 0.140625 7.691406 -0.0117188 7.714844 -0.152344 C 7.738281 -0.296875 7.75 -0.390625 7.75 -0.449219 L 7.75 -9.980469 C 7.738281 -9.980469 7.738281 -9.992188 7.738281 -10.003906 C 7.726562 -10.015625 7.714844 -10.027344 7.714844 -10.039062 C 7.703125 -10.039062 7.691406 -10.050781 7.691406 -10.050781 C 7.679688 -10.050781 7.667969 -10.0625 7.667969 -10.0625 Z M 7.667969 -10.0625 "/></g></g></g><g fill="#000000" fill-opacity="1"><g transform="translate(100.207963, 26.574645)"><g><path d="M 3.496094 -8.746094 L 3.449219 -8.746094 C 3.425781 -8.746094 3.414062 -8.746094 3.4375 -8.746094 C 3.4375 -8.746094 3.425781 -8.746094 3.390625 -8.746094 C 3.34375 -8.734375 3.308594 -8.722656 3.28125 -8.710938 C 3.234375 -8.6875 3.1875 -8.664062 3.152344 -8.640625 C 3.105469 -8.617188 3.058594 -8.582031 3.035156 -8.546875 C 3 -8.507812 2.976562 -8.472656 2.949219 -8.425781 C 2.925781 -8.378906 2.902344 -8.332031 2.890625 -8.285156 C 2.796875 -7.941406 2.679688 -7.539062 2.558594 -7.0625 C 2.429688 -6.589844 2.289062 -6.078125 2.144531 -5.558594 C 1.980469 -4.929688 1.800781 -4.300781 1.636719 -3.675781 C 1.457031 -3.035156 1.304688 -2.464844 1.160156 -1.980469 C 1.089844 -1.71875 1.019531 -1.480469 0.972656 -1.28125 C 0.914062 -1.066406 0.863281 -0.902344 0.828125 -0.78125 C 0.804688 -0.710938 0.804688 -0.664062 0.804688 -0.617188 C 0.804688 -0.378906 0.960938 -0.226562 1.28125 -0.152344 C 1.375 -0.117188 1.46875 -0.105469 1.550781 -0.105469 C 1.777344 -0.105469 1.921875 -0.214844 1.992188 -0.449219 C 2.109375 -0.925781 2.214844 -1.28125 2.289062 -1.515625 C 2.335938 -1.707031 2.40625 -1.8125 2.523438 -1.859375 C 2.632812 -1.894531 2.75 -1.921875 2.890625 -1.921875 C 3.648438 -1.90625 4.230469 -1.90625 4.609375 -1.90625 C 4.730469 -1.90625 4.847656 -1.882812 4.964844 -1.835938 C 5.085938 -1.789062 5.167969 -1.648438 5.238281 -1.433594 L 5.523438 -0.332031 C 5.570312 -0.117188 5.808594 -0.0585938 6.210938 -0.164062 C 6.53125 -0.238281 6.695312 -0.378906 6.695312 -0.582031 C 6.695312 -0.617188 6.683594 -0.664062 6.671875 -0.710938 C 5.761719 -4.078125 5.085938 -6.613281 4.632812 -8.296875 C 4.621094 -8.320312 4.609375 -8.355469 4.609375 -8.378906 C 4.597656 -8.402344 4.585938 -8.414062 4.574219 -8.4375 L 4.480469 -8.558594 C 4.445312 -8.59375 4.410156 -8.628906 4.375 -8.652344 C 4.324219 -8.675781 4.277344 -8.699219 4.230469 -8.722656 L 4.089844 -8.746094 Z M 3.484375 -5.832031 C 3.507812 -5.9375 3.601562 -6.019531 3.746094 -6.066406 C 3.769531 -6.066406 3.792969 -6.078125 3.816406 -6.078125 C 3.910156 -6.078125 3.992188 -5.996094 4.054688 -5.84375 C 4.148438 -5.476562 4.242188 -5.109375 4.347656 -4.753906 L 4.632812 -3.664062 C 4.644531 -3.613281 4.65625 -3.542969 4.65625 -3.449219 L 4.65625 -3.34375 C 4.644531 -3.1875 4.503906 -3.117188 4.242188 -3.117188 C 4.078125 -3.117188 3.910156 -3.128906 3.757812 -3.128906 L 3.269531 -3.128906 C 3.222656 -3.128906 3.128906 -3.140625 2.988281 -3.1875 C 2.890625 -3.210938 2.84375 -3.292969 2.84375 -3.425781 C 2.84375 -3.496094 2.855469 -3.578125 2.890625 -3.675781 C 2.988281 -4.03125 3.082031 -4.398438 3.1875 -4.753906 C 3.28125 -5.109375 3.378906 -5.476562 3.484375 -5.832031 Z M 5.011719 -10.261719 C 4.988281 -10.261719 4.976562 -10.277344 4.976562 -10.277344 C 4.964844 -10.277344 4.953125 -10.289062 4.941406 -10.289062 L 4.917969 -10.289062 L 4.90625 -10.277344 C 4.894531 -10.277344 4.882812 -10.261719 4.882812 -10.261719 C 4.871094 -10.261719 4.859375 -10.25 4.859375 -10.25 L 4.835938 -10.226562 C 4.824219 -10.214844 4.824219 -10.203125 4.824219 -10.191406 L 4.824219 -10.167969 C 4.8125 -10.15625 4.8125 -10.144531 4.824219 -10.132812 C 5.675781 -6.921875 6.328125 -4.515625 6.753906 -2.914062 C 6.753906 -2.902344 6.753906 -2.902344 6.765625 -2.902344 L 6.765625 -2.890625 L 6.792969 -2.867188 L 6.816406 -2.84375 C 6.816406 -2.832031 6.828125 -2.832031 6.839844 -2.832031 C 6.851562 -2.820312 6.863281 -2.820312 6.875 -2.820312 C 6.875 -2.820312 6.886719 -2.820312 6.898438 -2.832031 L 6.933594 -2.832031 L 6.980469 -2.878906 C 6.980469 -2.878906 6.992188 -2.890625 6.992188 -2.902344 C 6.992188 -2.902344 7.003906 -2.914062 7.003906 -2.9375 L 7.003906 -2.964844 C 6.992188 -2.976562 6.992188 -2.988281 6.992188 -3 C 6.140625 -6.199219 5.488281 -8.59375 5.0625 -10.191406 L 5.0625 -10.203125 C 5.0625 -10.203125 5.050781 -10.214844 5.050781 -10.214844 C 5.050781 -10.214844 5.035156 -10.226562 5.035156 -10.238281 Z M 5.011719 -10.261719 "/></g></g></g><g fill="#000000" fill-opacity="1"><g transform="translate(107.732113, 26.574645)"><g><path d="M 1.777344 -8.746094 L 1.742188 -8.746094 C 1.71875 -8.746094 1.707031 -8.746094 1.71875 -8.746094 L 1.730469 -8.746094 C 1.730469 -8.746094 1.71875 -8.734375 1.683594 -8.734375 C 1.636719 -8.722656 1.601562 -8.710938 1.578125 -8.710938 C 1.527344 -8.6875 1.480469 -8.664062 1.445312 -8.640625 C 1.398438 -8.605469 1.351562 -8.570312 1.328125 -8.546875 C 1.292969 -8.496094 1.269531 -8.460938 1.246094 -8.414062 C 1.222656 -8.367188 1.195312 -8.320312 1.195312 -8.273438 C 1.183594 -4.777344 1.171875 -2.15625 1.171875 -0.414062 C 1.171875 -0.164062 1.339844 -0.046875 1.695312 -0.046875 L 1.777344 -0.046875 C 2.167969 -0.0585938 2.371094 -0.203125 2.382812 -0.460938 L 2.382812 -2.605469 C 2.382812 -2.75 2.394531 -2.878906 2.441406 -3.011719 C 2.464844 -3.128906 2.605469 -3.199219 2.84375 -3.199219 L 3.257812 -3.199219 C 3.542969 -3.199219 3.722656 -3.140625 3.816406 -3.023438 C 3.898438 -2.902344 4.007812 -2.703125 4.136719 -2.441406 C 4.5625 -1.515625 4.894531 -0.816406 5.109375 -0.367188 C 5.121094 -0.34375 5.132812 -0.320312 5.144531 -0.296875 C 5.15625 -0.273438 5.167969 -0.25 5.191406 -0.238281 C 5.308594 -0.0585938 5.535156 -0.0351562 5.855469 -0.152344 C 6.164062 -0.273438 6.292969 -0.4375 6.257812 -0.652344 L 6.234375 -0.792969 C 6.210938 -0.839844 6.199219 -0.890625 6.175781 -0.9375 C 5.773438 -1.789062 5.464844 -2.441406 5.273438 -2.867188 C 5.214844 -2.988281 5.179688 -3.105469 5.167969 -3.222656 C 5.15625 -3.332031 5.238281 -3.449219 5.429688 -3.589844 C 5.488281 -3.625 5.546875 -3.675781 5.605469 -3.722656 C 5.652344 -3.769531 5.699219 -3.828125 5.75 -3.875 C 5.914062 -4.066406 6.042969 -4.277344 6.140625 -4.515625 C 6.234375 -4.753906 6.28125 -4.988281 6.292969 -5.238281 L 6.292969 -5.296875 C 6.292969 -5.308594 6.28125 -5.34375 6.28125 -5.390625 C 6.28125 -5.960938 6.292969 -6.398438 6.292969 -6.695312 L 6.292969 -6.742188 C 6.292969 -6.753906 6.28125 -6.792969 6.28125 -6.839844 C 6.257812 -7.171875 6.09375 -7.539062 5.796875 -7.929688 C 5.488281 -8.320312 5.023438 -8.582031 4.421875 -8.722656 C 4.398438 -8.722656 4.375 -8.734375 4.363281 -8.734375 C 4.347656 -8.734375 4.3125 -8.734375 4.265625 -8.746094 Z M 3.070312 -4.421875 C 2.925781 -4.421875 2.785156 -4.433594 2.621094 -4.480469 C 2.453125 -4.527344 2.382812 -4.707031 2.382812 -5.023438 L 2.382812 -6.96875 C 2.382812 -7.050781 2.40625 -7.171875 2.453125 -7.3125 C 2.488281 -7.453125 2.679688 -7.539062 3.011719 -7.539062 L 4.195312 -7.539062 C 4.5625 -7.441406 4.800781 -7.3125 4.90625 -7.148438 C 5 -6.980469 5.0625 -6.804688 5.085938 -6.636719 L 5.085938 -5.296875 C 5.085938 -5.191406 5.0625 -5.085938 5.011719 -4.976562 C 4.964844 -4.859375 4.90625 -4.753906 4.835938 -4.667969 C 4.765625 -4.585938 4.679688 -4.527344 4.597656 -4.480469 C 4.503906 -4.433594 4.410156 -4.421875 4.300781 -4.421875 Z M 7.21875 -7.183594 L 7.148438 -7.183594 C 7.136719 -7.183594 7.136719 -7.171875 7.136719 -7.171875 C 7.109375 -7.171875 7.097656 -7.160156 7.097656 -7.160156 C 7.085938 -7.148438 7.085938 -7.136719 7.085938 -7.136719 L 7.0625 -7.109375 L 7.0625 -7.074219 C 7.0625 -6.175781 7.050781 -5.511719 7.050781 -5.0625 C 7.039062 -4.859375 7.003906 -4.65625 6.933594 -4.457031 C 6.863281 -4.242188 6.765625 -4.042969 6.660156 -3.863281 C 6.542969 -3.675781 6.421875 -3.519531 6.292969 -3.390625 C 6.164062 -3.257812 6.042969 -3.175781 5.949219 -3.128906 L 5.9375 -3.117188 C 5.925781 -3.117188 5.925781 -3.105469 5.925781 -3.105469 L 5.902344 -3.082031 C 5.890625 -3.070312 5.890625 -3.058594 5.890625 -3.058594 C 5.878906 -3.046875 5.878906 -3.035156 5.878906 -3.023438 L 5.878906 -3 C 5.878906 -2.976562 5.878906 -2.964844 5.890625 -2.964844 C 5.890625 -2.949219 5.890625 -2.9375 5.902344 -2.9375 C 7.039062 -0.925781 7.882812 0.59375 8.449219 1.589844 L 8.460938 1.601562 C 8.460938 1.613281 8.460938 1.613281 8.472656 1.613281 C 8.472656 1.625 8.484375 1.636719 8.484375 1.636719 C 8.484375 1.648438 8.496094 1.660156 8.519531 1.660156 C 8.519531 1.660156 8.535156 1.671875 8.546875 1.671875 L 8.582031 1.671875 C 8.582031 1.671875 8.59375 1.671875 8.605469 1.660156 C 8.617188 1.660156 8.628906 1.660156 8.640625 1.648438 C 8.640625 1.648438 8.652344 1.648438 8.664062 1.636719 C 8.664062 1.636719 8.675781 1.625 8.675781 1.613281 C 8.675781 1.601562 8.6875 1.589844 8.6875 1.578125 C 8.6875 1.578125 8.699219 1.5625 8.699219 1.550781 C 8.699219 1.539062 8.6875 1.527344 8.6875 1.515625 C 8.6875 1.515625 8.675781 1.503906 8.675781 1.480469 C 7.5625 -0.496094 6.71875 -1.980469 6.164062 -2.976562 C 6.28125 -3.046875 6.410156 -3.152344 6.53125 -3.28125 C 6.648438 -3.414062 6.765625 -3.566406 6.875 -3.734375 C 6.992188 -3.921875 7.085938 -4.136719 7.171875 -4.375 C 7.242188 -4.597656 7.289062 -4.824219 7.300781 -5.0625 L 7.300781 -7.085938 C 7.300781 -7.097656 7.289062 -7.109375 7.289062 -7.121094 C 7.289062 -7.121094 7.277344 -7.136719 7.277344 -7.148438 L 7.253906 -7.171875 C 7.242188 -7.171875 7.230469 -7.171875 7.21875 -7.183594 Z M 7.21875 -7.183594 "/></g></g></g><g fill="#000000" fill-opacity="1"><g transform="translate(115.291811, 26.574645)"><g><path d="M 3.496094 -8.746094 L 3.449219 -8.746094 C 3.425781 -8.746094 3.414062 -8.746094 3.4375 -8.746094 C 3.4375 -8.746094 3.425781 -8.746094 3.390625 -8.746094 C 3.34375 -8.734375 3.308594 -8.722656 3.28125 -8.710938 C 3.234375 -8.6875 3.1875 -8.664062 3.152344 -8.640625 C 3.105469 -8.617188 3.058594 -8.582031 3.035156 -8.546875 C 3 -8.507812 2.976562 -8.472656 2.949219 -8.425781 C 2.925781 -8.378906 2.902344 -8.332031 2.890625 -8.285156 C 2.796875 -7.941406 2.679688 -7.539062 2.558594 -7.0625 C 2.429688 -6.589844 2.289062 -6.078125 2.144531 -5.558594 C 1.980469 -4.929688 1.800781 -4.300781 1.636719 -3.675781 C 1.457031 -3.035156 1.304688 -2.464844 1.160156 -1.980469 C 1.089844 -1.71875 1.019531 -1.480469 0.972656 -1.28125 C 0.914062 -1.066406 0.863281 -0.902344 0.828125 -0.78125 C 0.804688 -0.710938 0.804688 -0.664062 0.804688 -0.617188 C 0.804688 -0.378906 0.960938 -0.226562 1.28125 -0.152344 C 1.375 -0.117188 1.46875 -0.105469 1.550781 -0.105469 C 1.777344 -0.105469 1.921875 -0.214844 1.992188 -0.449219 C 2.109375 -0.925781 2.214844 -1.28125 2.289062 -1.515625 C 2.335938 -1.707031 2.40625 -1.8125 2.523438 -1.859375 C 2.632812 -1.894531 2.75 -1.921875 2.890625 -1.921875 C 3.648438 -1.90625 4.230469 -1.90625 4.609375 -1.90625 C 4.730469 -1.90625 4.847656 -1.882812 4.964844 -1.835938 C 5.085938 -1.789062 5.167969 -1.648438 5.238281 -1.433594 L 5.523438 -0.332031 C 5.570312 -0.117188 5.808594 -0.0585938 6.210938 -0.164062 C 6.53125 -0.238281 6.695312 -0.378906 6.695312 -0.582031 C 6.695312 -0.617188 6.683594 -0.664062 6.671875 -0.710938 C 5.761719 -4.078125 5.085938 -6.613281 4.632812 -8.296875 C 4.621094 -8.320312 4.609375 -8.355469 4.609375 -8.378906 C 4.597656 -8.402344 4.585938 -8.414062 4.574219 -8.4375 L 4.480469 -8.558594 C 4.445312 -8.59375 4.410156 -8.628906 4.375 -8.652344 C 4.324219 -8.675781 4.277344 -8.699219 4.230469 -8.722656 L 4.089844 -8.746094 Z M 3.484375 -5.832031 C 3.507812 -5.9375 3.601562 -6.019531 3.746094 -6.066406 C 3.769531 -6.066406 3.792969 -6.078125 3.816406 -6.078125 C 3.910156 -6.078125 3.992188 -5.996094 4.054688 -5.84375 C 4.148438 -5.476562 4.242188 -5.109375 4.347656 -4.753906 L 4.632812 -3.664062 C 4.644531 -3.613281 4.65625 -3.542969 4.65625 -3.449219 L 4.65625 -3.34375 C 4.644531 -3.1875 4.503906 -3.117188 4.242188 -3.117188 C 4.078125 -3.117188 3.910156 -3.128906 3.757812 -3.128906 L 3.269531 -3.128906 C 3.222656 -3.128906 3.128906 -3.140625 2.988281 -3.1875 C 2.890625 -3.210938 2.84375 -3.292969 2.84375 -3.425781 C 2.84375 -3.496094 2.855469 -3.578125 2.890625 -3.675781 C 2.988281 -4.03125 3.082031 -4.398438 3.1875 -4.753906 C 3.28125 -5.109375 3.378906 -5.476562 3.484375 -5.832031 Z M 5.011719 -10.261719 C 4.988281 -10.261719 4.976562 -10.277344 4.976562 -10.277344 C 4.964844 -10.277344 4.953125 -10.289062 4.941406 -10.289062 L 4.917969 -10.289062 L 4.90625 -10.277344 C 4.894531 -10.277344 4.882812 -10.261719 4.882812 -10.261719 C 4.871094 -10.261719 4.859375 -10.25 4.859375 -10.25 L 4.835938 -10.226562 C 4.824219 -10.214844 4.824219 -10.203125 4.824219 -10.191406 L 4.824219 -10.167969 C 4.8125 -10.15625 4.8125 -10.144531 4.824219 -10.132812 C 5.675781 -6.921875 6.328125 -4.515625 6.753906 -2.914062 C 6.753906 -2.902344 6.753906 -2.902344 6.765625 -2.902344 L 6.765625 -2.890625 L 6.792969 -2.867188 L 6.816406 -2.84375 C 6.816406 -2.832031 6.828125 -2.832031 6.839844 -2.832031 C 6.851562 -2.820312 6.863281 -2.820312 6.875 -2.820312 C 6.875 -2.820312 6.886719 -2.820312 6.898438 -2.832031 L 6.933594 -2.832031 L 6.980469 -2.878906 C 6.980469 -2.878906 6.992188 -2.890625 6.992188 -2.902344 C 6.992188 -2.902344 7.003906 -2.914062 7.003906 -2.9375 L 7.003906 -2.964844 C 6.992188 -2.976562 6.992188 -2.988281 6.992188 -3 C 6.140625 -6.199219 5.488281 -8.59375 5.0625 -10.191406 L 5.0625 -10.203125 C 5.0625 -10.203125 5.050781 -10.214844 5.050781 -10.214844 C 5.050781 -10.214844 5.035156 -10.226562 5.035156 -10.238281 Z M 5.011719 -10.261719 "/></g></g></g><g fill="#000000" fill-opacity="1"><g transform="translate(122.815956, 26.574645)"><g><path d="M 6.863281 -8.296875 C 6.863281 -8.605469 6.648438 -8.746094 6.234375 -8.734375 C 5.808594 -8.710938 5.617188 -8.535156 5.664062 -8.203125 L 5.628906 -3.367188 C 5.628906 -3.1875 5.558594 -3.070312 5.417969 -3 C 5.261719 -2.925781 5.144531 -2.988281 5.050781 -3.1875 C 4.136719 -5.488281 3.460938 -7.21875 3.011719 -8.378906 L 2.988281 -8.449219 C 2.964844 -8.472656 2.949219 -8.484375 2.9375 -8.507812 C 2.902344 -8.546875 2.867188 -8.582031 2.832031 -8.617188 C 2.785156 -8.652344 2.75 -8.675781 2.714844 -8.699219 C 2.667969 -8.722656 2.621094 -8.734375 2.570312 -8.746094 C 2.511719 -8.746094 2.464844 -8.757812 2.417969 -8.757812 L 1.730469 -8.757812 C 1.707031 -8.757812 1.683594 -8.746094 1.660156 -8.746094 C 1.613281 -8.722656 1.5625 -8.699219 1.527344 -8.6875 C 1.480469 -8.664062 1.433594 -8.628906 1.398438 -8.605469 C 1.351562 -8.558594 1.328125 -8.519531 1.304688 -8.484375 C 1.269531 -8.4375 1.246094 -8.390625 1.234375 -8.34375 C 1.207031 -8.296875 1.207031 -8.25 1.207031 -8.203125 C 1.207031 -8.140625 1.207031 -8.09375 1.222656 -8.046875 C 1.207031 -4.644531 1.207031 -2.097656 1.207031 -0.390625 C 1.207031 -0.296875 1.257812 -0.226562 1.363281 -0.152344 C 1.457031 -0.0820312 1.613281 -0.046875 1.800781 -0.046875 C 1.980469 -0.0351562 2.121094 -0.0703125 2.226562 -0.152344 C 2.324219 -0.226562 2.394531 -0.332031 2.417969 -0.449219 L 2.417969 -5.023438 C 2.394531 -5.191406 2.453125 -5.308594 2.605469 -5.367188 C 2.761719 -5.429688 2.878906 -5.367188 2.964844 -5.191406 C 3.792969 -3.070312 4.410156 -1.480469 4.835938 -0.414062 L 4.859375 -0.34375 C 4.859375 -0.320312 4.882812 -0.296875 4.90625 -0.285156 C 4.929688 -0.238281 4.964844 -0.203125 5.011719 -0.179688 C 5.035156 -0.140625 5.085938 -0.117188 5.132812 -0.09375 C 5.179688 -0.0703125 5.226562 -0.046875 5.273438 -0.046875 C 5.320312 -0.0351562 5.367188 -0.0351562 5.429688 -0.0351562 L 6.292969 -0.0351562 C 6.316406 -0.0351562 6.351562 -0.0351562 6.375 -0.046875 C 6.410156 -0.0703125 6.460938 -0.0820312 6.507812 -0.105469 C 6.554688 -0.128906 6.589844 -0.152344 6.636719 -0.191406 L 6.730469 -0.308594 C 6.753906 -0.355469 6.765625 -0.402344 6.792969 -0.449219 C 6.804688 -0.496094 6.816406 -0.546875 6.828125 -0.59375 C 6.828125 -0.640625 6.816406 -0.699219 6.816406 -0.746094 C 6.839844 -4.515625 6.851562 -7.039062 6.863281 -8.296875 Z M 1.730469 -9.625 L 1.695312 -9.625 C 1.578125 -9.625 1.445312 -9.601562 1.304688 -9.578125 C 1.148438 -9.527344 0.996094 -9.46875 0.851562 -9.375 C 0.710938 -9.28125 0.582031 -9.148438 0.484375 -8.984375 C 0.367188 -8.804688 0.308594 -8.605469 0.308594 -8.367188 L 0.308594 1.550781 C 0.308594 1.578125 0.320312 1.589844 0.320312 1.589844 L 0.34375 1.613281 C 0.34375 1.625 0.34375 1.636719 0.367188 1.636719 C 0.367188 1.636719 0.378906 1.648438 0.390625 1.648438 L 0.449219 1.648438 C 0.449219 1.648438 0.460938 1.648438 0.484375 1.636719 C 0.484375 1.636719 0.496094 1.636719 0.507812 1.625 L 0.535156 1.601562 C 0.535156 1.601562 0.535156 1.589844 0.546875 1.578125 C 0.546875 1.578125 0.546875 1.5625 0.558594 1.539062 L 0.558594 -8.355469 C 0.558594 -8.558594 0.605469 -8.722656 0.699219 -8.851562 C 0.769531 -8.972656 0.878906 -9.078125 0.996094 -9.160156 C 1.113281 -9.234375 1.234375 -9.292969 1.375 -9.328125 C 1.503906 -9.363281 1.625 -9.375 1.730469 -9.375 L 2.417969 -9.375 C 2.84375 -9.375 3.140625 -9.292969 3.320312 -9.125 C 3.484375 -8.960938 3.601562 -8.804688 3.675781 -8.664062 L 4.742188 -5.855469 L 4.742188 -5.832031 C 4.742188 -5.832031 4.753906 -5.820312 4.753906 -5.820312 L 4.777344 -5.796875 C 4.777344 -5.785156 4.789062 -5.785156 4.800781 -5.785156 C 4.800781 -5.773438 4.8125 -5.773438 4.824219 -5.773438 C 4.824219 -5.761719 4.835938 -5.761719 4.859375 -5.761719 C 4.859375 -5.761719 4.871094 -5.761719 4.882812 -5.773438 L 4.917969 -5.773438 L 4.964844 -5.820312 C 4.964844 -5.820312 4.964844 -5.832031 4.976562 -5.84375 L 4.976562 -5.9375 C 4.492188 -7.183594 4.136719 -8.117188 3.898438 -8.757812 C 3.828125 -8.925781 3.675781 -9.113281 3.460938 -9.328125 C 3.234375 -9.515625 2.890625 -9.625 2.417969 -9.625 Z M 1.730469 -9.625 "/></g></g></g><g fill="#000000" fill-opacity="1"><g transform="translate(130.849616, 26.574645)"><g><path d="M 3.839844 -8.769531 L 3.828125 -8.769531 C 3.542969 -8.757812 3.246094 -8.722656 2.964844 -8.675781 C 2.679688 -8.605469 2.40625 -8.496094 2.144531 -8.34375 C 1.882812 -8.191406 1.660156 -7.976562 1.46875 -7.703125 C 1.28125 -7.417969 1.183594 -7.085938 1.183594 -6.730469 L 1.183594 -2.050781 C 1.183594 -2.039062 1.183594 -2.003906 1.195312 -1.957031 C 1.207031 -1.625 1.316406 -1.316406 1.515625 -1.042969 C 1.707031 -0.757812 1.945312 -0.546875 2.203125 -0.402344 C 2.464844 -0.25 2.726562 -0.152344 3.011719 -0.105469 C 3.28125 -0.0585938 3.542969 -0.0351562 3.792969 -0.0351562 C 4.136719 -0.0351562 4.457031 -0.0703125 4.765625 -0.140625 C 5.0625 -0.214844 5.320312 -0.332031 5.558594 -0.484375 C 5.796875 -0.640625 5.984375 -0.839844 6.128906 -1.101562 C 6.269531 -1.339844 6.339844 -1.613281 6.339844 -1.894531 L 6.339844 -4.457031 C 6.339844 -4.480469 6.328125 -4.503906 6.316406 -4.527344 C 6.292969 -4.574219 6.28125 -4.621094 6.257812 -4.667969 C 6.234375 -4.71875 6.210938 -4.753906 6.175781 -4.789062 C 6.140625 -4.824219 6.105469 -4.859375 6.054688 -4.882812 C 6.007812 -4.90625 5.972656 -4.929688 5.925781 -4.953125 C 5.878906 -4.964844 5.832031 -4.976562 5.785156 -4.976562 L 3.816406 -4.976562 C 3.722656 -4.976562 3.636719 -4.917969 3.566406 -4.824219 C 3.496094 -4.71875 3.449219 -4.574219 3.449219 -4.386719 C 3.449219 -4.171875 3.484375 -4.019531 3.566406 -3.921875 C 3.636719 -3.816406 3.746094 -3.769531 3.863281 -3.78125 C 4.148438 -3.769531 4.375 -3.769531 4.515625 -3.769531 C 4.632812 -3.769531 4.765625 -3.722656 4.917969 -3.625 C 5.074219 -3.53125 5.144531 -3.378906 5.132812 -3.1875 L 5.132812 -1.894531 C 5.132812 -1.800781 5.109375 -1.730469 5.085938 -1.683594 C 5.050781 -1.625 4.976562 -1.5625 4.882812 -1.492188 C 4.789062 -1.421875 4.644531 -1.375 4.46875 -1.328125 C 4.277344 -1.269531 4.054688 -1.246094 3.792969 -1.246094 C 3.601562 -1.246094 3.425781 -1.257812 3.257812 -1.304688 C 3.070312 -1.328125 2.914062 -1.386719 2.796875 -1.457031 C 2.679688 -1.527344 2.582031 -1.601562 2.523438 -1.695312 C 2.453125 -1.789062 2.40625 -1.933594 2.394531 -2.121094 L 2.394531 -6.730469 C 2.394531 -6.875 2.417969 -6.980469 2.476562 -7.0625 C 2.523438 -7.148438 2.621094 -7.230469 2.75 -7.300781 C 2.976562 -7.429688 3.199219 -7.515625 3.425781 -7.539062 C 3.648438 -7.5625 3.839844 -7.574219 3.980469 -7.574219 C 4.230469 -7.5625 4.46875 -7.476562 4.707031 -7.324219 C 4.941406 -7.171875 5.085938 -7.003906 5.144531 -6.828125 C 5.144531 -6.792969 5.144531 -6.765625 5.15625 -6.742188 C 5.15625 -6.71875 5.167969 -6.695312 5.191406 -6.683594 C 5.261719 -6.601562 5.367188 -6.554688 5.511719 -6.542969 C 5.652344 -6.53125 5.808594 -6.566406 5.972656 -6.648438 C 6.117188 -6.71875 6.222656 -6.804688 6.269531 -6.898438 C 6.316406 -6.980469 6.316406 -7.074219 6.292969 -7.171875 C 6.140625 -7.679688 5.832031 -8.070312 5.355469 -8.355469 C 4.894531 -8.628906 4.398438 -8.769531 3.863281 -8.769531 Z M 0.496094 -7.253906 C 0.484375 -7.253906 0.472656 -7.265625 0.460938 -7.265625 L 0.425781 -7.265625 C 0.414062 -7.265625 0.414062 -7.253906 0.414062 -7.253906 L 0.390625 -7.253906 L 0.367188 -7.230469 C 0.355469 -7.21875 0.355469 -7.207031 0.355469 -7.207031 C 0.34375 -7.195312 0.34375 -7.183594 0.34375 -7.183594 C 0.332031 -7.171875 0.332031 -7.160156 0.332031 -7.148438 L 0.332031 -2.109375 C 0.332031 -1.777344 0.402344 -1.433594 0.546875 -1.078125 C 0.6875 -0.710938 0.902344 -0.390625 1.195312 -0.105469 C 1.492188 0.191406 1.871094 0.414062 2.335938 0.582031 C 2.691406 0.722656 3.09375 0.78125 3.554688 0.78125 C 3.675781 0.78125 3.804688 0.78125 3.945312 0.769531 L 3.96875 0.769531 L 3.980469 0.757812 C 3.980469 0.757812 3.992188 0.757812 4.007812 0.746094 L 4.03125 0.722656 C 4.03125 0.722656 4.042969 0.722656 4.054688 0.699219 C 4.054688 0.699219 4.066406 0.6875 4.066406 0.675781 L 4.066406 0.617188 C 4.066406 0.605469 4.054688 0.59375 4.054688 0.582031 L 4.03125 0.558594 C 4.03125 0.558594 4.019531 0.546875 4.007812 0.535156 C 3.992188 0.535156 3.980469 0.535156 3.980469 0.519531 L 3.921875 0.519531 C 3.332031 0.570312 2.832031 0.507812 2.417969 0.355469 C 1.992188 0.203125 1.648438 -0.0117188 1.375 -0.285156 C 1.101562 -0.546875 0.902344 -0.839844 0.769531 -1.171875 C 0.640625 -1.492188 0.582031 -1.800781 0.582031 -2.109375 L 0.582031 -7.171875 C 0.570312 -7.171875 0.570312 -7.183594 0.570312 -7.195312 L 0.546875 -7.21875 C 0.546875 -7.21875 0.535156 -7.230469 0.519531 -7.242188 C 0.507812 -7.242188 0.496094 -7.253906 0.496094 -7.253906 Z M 0.496094 -7.253906 "/></g></g></g><g fill="#000000" fill-opacity="1"><g transform="translate(66.435896, 38.943235)"><g><path d="M 1.140625 -3.34375 L 1.140625 -2.34375 L 2.65625 -2.34375 L 2.65625 -1.734375 L 1.140625 -1.734375 L 1.140625 0 L 0.46875 0 L 0.46875 -3.953125 L 2.9375 -3.953125 L 2.9375 -3.34375 Z M 1.140625 -3.34375 "/></g></g></g><g fill="#000000" fill-opacity="1"><g transform="translate(69.585717, 38.943235)"><g><path d="M 2.328125 0 L 2.328125 -0.40625 C 2.265625 -0.34375 2.191406 -0.28125 2.109375 -0.21875 C 2.035156 -0.15625 1.953125 -0.101562 1.859375 -0.0625 C 1.773438 -0.0195312 1.6875 0.015625 1.59375 0.046875 C 1.5 0.078125 1.398438 0.09375 1.296875 0.09375 C 1.128906 0.09375 0.988281 0.0664062 0.875 0.015625 C 0.769531 -0.0234375 0.679688 -0.09375 0.609375 -0.1875 C 0.546875 -0.28125 0.5 -0.394531 0.46875 -0.53125 C 0.4375 -0.664062 0.421875 -0.820312 0.421875 -1 L 0.421875 -3 L 1.046875 -3 L 1.046875 -1.28125 C 1.046875 -1.132812 1.046875 -1.007812 1.046875 -0.90625 C 1.054688 -0.800781 1.078125 -0.71875 1.109375 -0.65625 C 1.140625 -0.59375 1.179688 -0.546875 1.234375 -0.515625 C 1.296875 -0.484375 1.375 -0.46875 1.46875 -0.46875 C 1.53125 -0.46875 1.597656 -0.476562 1.671875 -0.5 C 1.742188 -0.53125 1.816406 -0.566406 1.890625 -0.609375 C 1.960938 -0.648438 2.035156 -0.695312 2.109375 -0.75 C 2.191406 -0.8125 2.265625 -0.875 2.328125 -0.9375 L 2.328125 -3 L 2.9375 -3 L 2.9375 0 Z M 2.328125 0 "/></g></g></g><g fill="#000000" fill-opacity="1"><g transform="translate(72.974764, 38.943235)"><g><path d="M 0.46875 0 L 0.46875 -4.25 L 1.078125 -4.25 L 1.078125 0 Z M 0.46875 0 "/></g></g></g><g fill="#000000" fill-opacity="1"><g transform="translate(74.509803, 38.943235)"><g><path d="M 0.46875 0 L 0.46875 -4.25 L 1.078125 -4.25 L 1.078125 0 Z M 0.46875 0 "/></g></g></g><g fill="#000000" fill-opacity="1"><g transform="translate(76.044842, 38.943235)"><g/></g></g><g fill="#000000" fill-opacity="1"><g transform="translate(77.531466, 38.943235)"><g><path d="M 3.21875 -1.109375 C 3.21875 -0.890625 3.175781 -0.703125 3.09375 -0.546875 C 3.019531 -0.398438 2.914062 -0.28125 2.78125 -0.1875 C 2.644531 -0.09375 2.484375 -0.0234375 2.296875 0.015625 C 2.117188 0.0546875 1.929688 0.078125 1.734375 0.078125 C 1.523438 0.078125 1.335938 0.0546875 1.171875 0.015625 C 1.015625 -0.015625 0.875 -0.0664062 0.75 -0.140625 C 0.632812 -0.210938 0.535156 -0.289062 0.453125 -0.375 C 0.367188 -0.46875 0.296875 -0.566406 0.234375 -0.671875 L 0.75 -1.046875 C 0.800781 -0.972656 0.851562 -0.90625 0.90625 -0.84375 C 0.96875 -0.78125 1.035156 -0.722656 1.109375 -0.671875 C 1.191406 -0.617188 1.28125 -0.578125 1.375 -0.546875 C 1.476562 -0.523438 1.597656 -0.515625 1.734375 -0.515625 C 1.835938 -0.515625 1.9375 -0.519531 2.03125 -0.53125 C 2.132812 -0.550781 2.222656 -0.582031 2.296875 -0.625 C 2.367188 -0.675781 2.425781 -0.734375 2.46875 -0.796875 C 2.507812 -0.867188 2.53125 -0.957031 2.53125 -1.0625 C 2.53125 -1.164062 2.507812 -1.25 2.46875 -1.3125 C 2.425781 -1.375 2.367188 -1.425781 2.296875 -1.46875 C 2.222656 -1.519531 2.140625 -1.5625 2.046875 -1.59375 C 1.953125 -1.625 1.847656 -1.65625 1.734375 -1.6875 C 1.535156 -1.738281 1.347656 -1.789062 1.171875 -1.84375 C 0.992188 -1.894531 0.84375 -1.960938 0.71875 -2.046875 C 0.59375 -2.128906 0.492188 -2.234375 0.421875 -2.359375 C 0.347656 -2.492188 0.3125 -2.660156 0.3125 -2.859375 C 0.3125 -3.046875 0.34375 -3.207031 0.40625 -3.34375 C 0.46875 -3.488281 0.554688 -3.613281 0.671875 -3.71875 C 0.785156 -3.820312 0.929688 -3.898438 1.109375 -3.953125 C 1.285156 -4.003906 1.488281 -4.03125 1.71875 -4.03125 C 1.882812 -4.03125 2.039062 -4.015625 2.1875 -3.984375 C 2.332031 -3.953125 2.460938 -3.90625 2.578125 -3.84375 C 2.691406 -3.789062 2.789062 -3.71875 2.875 -3.625 C 2.96875 -3.539062 3.050781 -3.441406 3.125 -3.328125 L 2.609375 -2.9375 C 2.503906 -3.101562 2.378906 -3.226562 2.234375 -3.3125 C 2.085938 -3.394531 1.914062 -3.4375 1.71875 -3.4375 C 1.488281 -3.4375 1.304688 -3.390625 1.171875 -3.296875 C 1.046875 -3.210938 0.984375 -3.085938 0.984375 -2.921875 C 0.984375 -2.835938 1 -2.765625 1.03125 -2.703125 C 1.070312 -2.648438 1.128906 -2.601562 1.203125 -2.5625 C 1.273438 -2.519531 1.363281 -2.476562 1.46875 -2.4375 C 1.582031 -2.40625 1.71875 -2.375 1.875 -2.34375 C 1.988281 -2.3125 2.101562 -2.28125 2.21875 -2.25 C 2.332031 -2.21875 2.4375 -2.179688 2.53125 -2.140625 C 2.632812 -2.097656 2.726562 -2.046875 2.8125 -1.984375 C 2.894531 -1.929688 2.960938 -1.863281 3.015625 -1.78125 C 3.078125 -1.695312 3.125 -1.597656 3.15625 -1.484375 C 3.195312 -1.378906 3.21875 -1.253906 3.21875 -1.109375 Z M 3.21875 -1.109375 "/></g></g></g><g fill="#000000" fill-opacity="1"><g transform="translate(81.025887, 38.943235)"><g><path d="M 2.015625 0 C 1.929688 0.03125 1.835938 0.0507812 1.734375 0.0625 C 1.628906 0.0820312 1.523438 0.09375 1.421875 0.09375 C 1.265625 0.09375 1.128906 0.0703125 1.015625 0.03125 C 0.898438 -0.0078125 0.800781 -0.0664062 0.71875 -0.140625 C 0.644531 -0.222656 0.59375 -0.328125 0.5625 -0.453125 C 0.53125 -0.578125 0.515625 -0.726562 0.515625 -0.90625 L 0.515625 -2.5 L 0.109375 -2.5 L 0.109375 -3 L 0.515625 -3 L 0.515625 -3.828125 L 1.125 -3.828125 L 1.125 -3 L 1.859375 -3 L 1.859375 -2.5 L 1.125 -2.5 L 1.125 -1 C 1.125 -0.894531 1.128906 -0.804688 1.140625 -0.734375 C 1.160156 -0.660156 1.179688 -0.597656 1.203125 -0.546875 C 1.234375 -0.503906 1.269531 -0.472656 1.3125 -0.453125 C 1.363281 -0.429688 1.421875 -0.421875 1.484375 -0.421875 C 1.554688 -0.421875 1.628906 -0.425781 1.703125 -0.4375 C 1.773438 -0.457031 1.835938 -0.476562 1.890625 -0.5 Z M 2.015625 0 "/></g></g></g><g fill="#000000" fill-opacity="1"><g transform="translate(83.113426, 38.943235)"><g><path d="M 2.1875 0 L 2.1875 -0.34375 C 2.039062 -0.21875 1.890625 -0.113281 1.734375 -0.03125 C 1.578125 0.0507812 1.40625 0.09375 1.21875 0.09375 C 1.070312 0.09375 0.9375 0.0664062 0.8125 0.015625 C 0.695312 -0.0234375 0.597656 -0.0859375 0.515625 -0.171875 C 0.441406 -0.253906 0.382812 -0.351562 0.34375 -0.46875 C 0.300781 -0.582031 0.28125 -0.707031 0.28125 -0.84375 C 0.28125 -1.019531 0.304688 -1.171875 0.359375 -1.296875 C 0.421875 -1.421875 0.503906 -1.519531 0.609375 -1.59375 C 0.710938 -1.664062 0.835938 -1.722656 0.984375 -1.765625 C 1.128906 -1.804688 1.289062 -1.835938 1.46875 -1.859375 L 2.15625 -1.921875 L 2.15625 -2.0625 C 2.15625 -2.15625 2.140625 -2.234375 2.109375 -2.296875 C 2.078125 -2.367188 2.03125 -2.421875 1.96875 -2.453125 C 1.914062 -2.492188 1.847656 -2.523438 1.765625 -2.546875 C 1.679688 -2.566406 1.585938 -2.578125 1.484375 -2.578125 C 1.390625 -2.578125 1.300781 -2.566406 1.21875 -2.546875 C 1.144531 -2.523438 1.082031 -2.5 1.03125 -2.46875 C 0.976562 -2.4375 0.929688 -2.398438 0.890625 -2.359375 C 0.859375 -2.328125 0.832031 -2.289062 0.8125 -2.25 L 0.328125 -2.5625 C 0.359375 -2.625 0.40625 -2.6875 0.46875 -2.75 C 0.53125 -2.8125 0.609375 -2.863281 0.703125 -2.90625 C 0.804688 -2.957031 0.921875 -3 1.046875 -3.03125 C 1.179688 -3.0625 1.332031 -3.078125 1.5 -3.078125 C 1.707031 -3.078125 1.890625 -3.054688 2.046875 -3.015625 C 2.203125 -2.984375 2.332031 -2.925781 2.4375 -2.84375 C 2.550781 -2.769531 2.632812 -2.664062 2.6875 -2.53125 C 2.738281 -2.394531 2.765625 -2.226562 2.765625 -2.03125 L 2.765625 0 Z M 2.15625 -1.453125 L 1.71875 -1.421875 C 1.59375 -1.398438 1.476562 -1.378906 1.375 -1.359375 C 1.269531 -1.335938 1.179688 -1.300781 1.109375 -1.25 C 1.046875 -1.207031 0.992188 -1.15625 0.953125 -1.09375 C 0.921875 -1.03125 0.90625 -0.953125 0.90625 -0.859375 C 0.90625 -0.691406 0.945312 -0.578125 1.03125 -0.515625 C 1.113281 -0.453125 1.234375 -0.421875 1.390625 -0.421875 C 1.441406 -0.421875 1.5 -0.429688 1.5625 -0.453125 C 1.625 -0.472656 1.6875 -0.5 1.75 -0.53125 C 1.820312 -0.5625 1.890625 -0.597656 1.953125 -0.640625 C 2.023438 -0.691406 2.09375 -0.742188 2.15625 -0.796875 Z M 2.15625 -1.453125 "/></g></g></g><g fill="#000000" fill-opacity="1"><g transform="translate(86.297422, 38.943235)"><g><path d="M 2.8125 -0.4375 C 2.757812 -0.363281 2.695312 -0.289062 2.625 -0.21875 C 2.5625 -0.15625 2.484375 -0.0976562 2.390625 -0.046875 C 2.296875 -0.00390625 2.191406 0.0234375 2.078125 0.046875 C 1.960938 0.078125 1.832031 0.09375 1.6875 0.09375 C 1.4375 0.09375 1.222656 0.0546875 1.046875 -0.015625 C 0.867188 -0.0976562 0.722656 -0.207031 0.609375 -0.34375 C 0.503906 -0.488281 0.425781 -0.65625 0.375 -0.84375 C 0.320312 -1.03125 0.296875 -1.242188 0.296875 -1.484375 C 0.296875 -1.722656 0.320312 -1.941406 0.375 -2.140625 C 0.425781 -2.335938 0.507812 -2.503906 0.625 -2.640625 C 0.738281 -2.785156 0.878906 -2.894531 1.046875 -2.96875 C 1.222656 -3.039062 1.429688 -3.078125 1.671875 -3.078125 C 1.921875 -3.078125 2.140625 -3.03125 2.328125 -2.9375 C 2.515625 -2.851562 2.660156 -2.722656 2.765625 -2.546875 L 2.296875 -2.21875 C 2.222656 -2.320312 2.140625 -2.398438 2.046875 -2.453125 C 1.953125 -2.515625 1.828125 -2.546875 1.671875 -2.546875 C 1.421875 -2.546875 1.234375 -2.457031 1.109375 -2.28125 C 0.992188 -2.113281 0.9375 -1.847656 0.9375 -1.484375 C 0.9375 -1.316406 0.945312 -1.164062 0.96875 -1.03125 C 1 -0.90625 1.039062 -0.796875 1.09375 -0.703125 C 1.15625 -0.617188 1.234375 -0.550781 1.328125 -0.5 C 1.429688 -0.457031 1.554688 -0.4375 1.703125 -0.4375 C 1.765625 -0.4375 1.820312 -0.441406 1.875 -0.453125 C 1.9375 -0.460938 1.992188 -0.476562 2.046875 -0.5 C 2.097656 -0.53125 2.144531 -0.566406 2.1875 -0.609375 C 2.238281 -0.648438 2.285156 -0.703125 2.328125 -0.765625 Z M 2.8125 -0.4375 "/></g></g></g><g fill="#000000" fill-opacity="1"><g transform="translate(89.27067, 38.943235)"><g><path d="M 2.25 0 L 1.359375 -1.296875 L 1.0625 -0.953125 L 1.0625 0 L 0.453125 0 L 0.453125 -4.25 L 1.0625 -4.25 L 1.0625 -1.703125 L 2.171875 -3 L 2.90625 -3 L 1.734375 -1.703125 L 2.96875 0 Z M 2.25 0 "/></g></g></g><g fill="#000000" fill-opacity="1"><g transform="translate(92.326508, 38.943235)"><g/></g></g><g fill="#000000" fill-opacity="1"><g transform="translate(93.813133, 38.943235)"><g><path d="M 3.421875 -1.96875 C 3.421875 -1.582031 3.378906 -1.257812 3.296875 -1 C 3.222656 -0.75 3.101562 -0.550781 2.9375 -0.40625 C 2.78125 -0.257812 2.582031 -0.15625 2.34375 -0.09375 C 2.113281 -0.03125 1.847656 0 1.546875 0 L 0.4375 0 L 0.4375 -3.953125 L 1.53125 -3.953125 C 1.84375 -3.953125 2.117188 -3.914062 2.359375 -3.84375 C 2.597656 -3.78125 2.796875 -3.671875 2.953125 -3.515625 C 3.109375 -3.359375 3.222656 -3.15625 3.296875 -2.90625 C 3.378906 -2.65625 3.421875 -2.34375 3.421875 -1.96875 Z M 2.734375 -1.984375 C 2.734375 -2.242188 2.710938 -2.460938 2.671875 -2.640625 C 2.628906 -2.816406 2.554688 -2.957031 2.453125 -3.0625 C 2.359375 -3.164062 2.226562 -3.238281 2.0625 -3.28125 C 1.90625 -3.320312 1.710938 -3.34375 1.484375 -3.34375 L 1.109375 -3.34375 L 1.109375 -0.609375 L 1.484375 -0.609375 C 1.722656 -0.609375 1.921875 -0.628906 2.078125 -0.671875 C 2.234375 -0.710938 2.359375 -0.785156 2.453125 -0.890625 C 2.554688 -1.003906 2.628906 -1.148438 2.671875 -1.328125 C 2.710938 -1.503906 2.734375 -1.722656 2.734375 -1.984375 Z M 2.734375 -1.984375 "/></g></g></g><g fill="#000000" fill-opacity="1"><g transform="translate(97.523997, 38.943235)"><g><path d="M 0.9375 -1.359375 C 0.9375 -1.210938 0.945312 -1.082031 0.96875 -0.96875 C 1 -0.851562 1.046875 -0.753906 1.109375 -0.671875 C 1.171875 -0.597656 1.253906 -0.539062 1.359375 -0.5 C 1.460938 -0.457031 1.585938 -0.4375 1.734375 -0.4375 C 1.867188 -0.4375 1.988281 -0.457031 2.09375 -0.5 C 2.195312 -0.550781 2.296875 -0.632812 2.390625 -0.75 L 2.859375 -0.4375 C 2.796875 -0.351562 2.726562 -0.273438 2.65625 -0.203125 C 2.59375 -0.140625 2.515625 -0.0859375 2.421875 -0.046875 C 2.328125 -0.00390625 2.21875 0.0234375 2.09375 0.046875 C 1.976562 0.078125 1.84375 0.09375 1.6875 0.09375 C 1.21875 0.09375 0.867188 -0.0351562 0.640625 -0.296875 C 0.410156 -0.566406 0.296875 -0.957031 0.296875 -1.46875 C 0.296875 -1.707031 0.316406 -1.925781 0.359375 -2.125 C 0.410156 -2.320312 0.488281 -2.488281 0.59375 -2.625 C 0.707031 -2.769531 0.847656 -2.878906 1.015625 -2.953125 C 1.191406 -3.035156 1.40625 -3.078125 1.65625 -3.078125 C 1.882812 -3.078125 2.078125 -3.039062 2.234375 -2.96875 C 2.390625 -2.90625 2.515625 -2.8125 2.609375 -2.6875 C 2.710938 -2.570312 2.785156 -2.425781 2.828125 -2.25 C 2.878906 -2.082031 2.90625 -1.894531 2.90625 -1.6875 L 2.90625 -1.359375 Z M 2.296875 -1.8125 C 2.296875 -2.0625 2.242188 -2.25 2.140625 -2.375 C 2.035156 -2.507812 1.867188 -2.578125 1.640625 -2.578125 C 1.523438 -2.578125 1.425781 -2.5625 1.34375 -2.53125 C 1.269531 -2.5 1.203125 -2.445312 1.140625 -2.375 C 1.085938 -2.3125 1.046875 -2.234375 1.015625 -2.140625 C 0.984375 -2.046875 0.957031 -1.9375 0.9375 -1.8125 Z M 2.296875 -1.8125 "/></g></g></g><g fill="#000000" fill-opacity="1"><g transform="translate(100.690905, 38.943235)"><g><path d="M 1.75 0 L 1.171875 0 L 0.109375 -3 L 0.75 -3 L 1.46875 -0.828125 L 2.1875 -3 L 2.8125 -3 Z M 1.75 0 "/></g></g></g><g fill="#000000" fill-opacity="1"><g transform="translate(103.607194, 38.943235)"><g><path d="M 0.9375 -1.359375 C 0.9375 -1.210938 0.945312 -1.082031 0.96875 -0.96875 C 1 -0.851562 1.046875 -0.753906 1.109375 -0.671875 C 1.171875 -0.597656 1.253906 -0.539062 1.359375 -0.5 C 1.460938 -0.457031 1.585938 -0.4375 1.734375 -0.4375 C 1.867188 -0.4375 1.988281 -0.457031 2.09375 -0.5 C 2.195312 -0.550781 2.296875 -0.632812 2.390625 -0.75 L 2.859375 -0.4375 C 2.796875 -0.351562 2.726562 -0.273438 2.65625 -0.203125 C 2.59375 -0.140625 2.515625 -0.0859375 2.421875 -0.046875 C 2.328125 -0.00390625 2.21875 0.0234375 2.09375 0.046875 C 1.976562 0.078125 1.84375 0.09375 1.6875 0.09375 C 1.21875 0.09375 0.867188 -0.0351562 0.640625 -0.296875 C 0.410156 -0.566406 0.296875 -0.957031 0.296875 -1.46875 C 0.296875 -1.707031 0.316406 -1.925781 0.359375 -2.125 C 0.410156 -2.320312 0.488281 -2.488281 0.59375 -2.625 C 0.707031 -2.769531 0.847656 -2.878906 1.015625 -2.953125 C 1.191406 -3.035156 1.40625 -3.078125 1.65625 -3.078125 C 1.882812 -3.078125 2.078125 -3.039062 2.234375 -2.96875 C 2.390625 -2.90625 2.515625 -2.8125 2.609375 -2.6875 C 2.710938 -2.570312 2.785156 -2.425781 2.828125 -2.25 C 2.878906 -2.082031 2.90625 -1.894531 2.90625 -1.6875 L 2.90625 -1.359375 Z M 2.296875 -1.8125 C 2.296875 -2.0625 2.242188 -2.25 2.140625 -2.375 C 2.035156 -2.507812 1.867188 -2.578125 1.640625 -2.578125 C 1.523438 -2.578125 1.425781 -2.5625 1.34375 -2.53125 C 1.269531 -2.5 1.203125 -2.445312 1.140625 -2.375 C 1.085938 -2.3125 1.046875 -2.234375 1.015625 -2.140625 C 0.984375 -2.046875 0.957031 -1.9375 0.9375 -1.8125 Z M 2.296875 -1.8125 "/></g></g></g><g fill="#000000" fill-opacity="1"><g transform="translate(106.774102, 38.943235)"><g><path d="M 0.46875 0 L 0.46875 -4.25 L 1.078125 -4.25 L 1.078125 0 Z M 0.46875 0 "/></g></g></g><g fill="#000000" fill-opacity="1"><g transform="translate(108.309141, 38.943235)"><g><path d="M 3.046875 -1.484375 C 3.046875 -1.242188 3.019531 -1.023438 2.96875 -0.828125 C 2.914062 -0.640625 2.832031 -0.472656 2.71875 -0.328125 C 2.613281 -0.191406 2.472656 -0.0859375 2.296875 -0.015625 C 2.128906 0.0546875 1.921875 0.09375 1.671875 0.09375 C 1.429688 0.09375 1.222656 0.0546875 1.046875 -0.015625 C 0.867188 -0.0976562 0.722656 -0.207031 0.609375 -0.34375 C 0.503906 -0.476562 0.425781 -0.640625 0.375 -0.828125 C 0.320312 -1.023438 0.296875 -1.242188 0.296875 -1.484375 C 0.296875 -1.734375 0.320312 -1.957031 0.375 -2.15625 C 0.425781 -2.351562 0.507812 -2.519531 0.625 -2.65625 C 0.738281 -2.789062 0.878906 -2.894531 1.046875 -2.96875 C 1.222656 -3.039062 1.429688 -3.078125 1.671875 -3.078125 C 1.921875 -3.078125 2.128906 -3.039062 2.296875 -2.96875 C 2.472656 -2.894531 2.613281 -2.789062 2.71875 -2.65625 C 2.832031 -2.519531 2.914062 -2.351562 2.96875 -2.15625 C 3.019531 -1.957031 3.046875 -1.734375 3.046875 -1.484375 Z M 2.40625 -1.484375 C 2.40625 -1.835938 2.347656 -2.101562 2.234375 -2.28125 C 2.117188 -2.457031 1.929688 -2.546875 1.671875 -2.546875 C 1.410156 -2.546875 1.222656 -2.457031 1.109375 -2.28125 C 0.992188 -2.101562 0.9375 -1.835938 0.9375 -1.484375 C 0.9375 -1.140625 0.992188 -0.878906 1.109375 -0.703125 C 1.222656 -0.523438 1.410156 -0.4375 1.671875 -0.4375 C 1.929688 -0.4375 2.117188 -0.523438 2.234375 -0.703125 C 2.347656 -0.878906 2.40625 -1.140625 2.40625 -1.484375 Z M 2.40625 -1.484375 "/></g></g></g><g fill="#000000" fill-opacity="1"><g transform="translate(111.652622, 38.943235)"><g><path d="M 3.109375 -1.515625 C 3.109375 -1.304688 3.082031 -1.101562 3.03125 -0.90625 C 2.988281 -0.71875 2.921875 -0.546875 2.828125 -0.390625 C 2.734375 -0.242188 2.609375 -0.125 2.453125 -0.03125 C 2.296875 0.0507812 2.113281 0.09375 1.90625 0.09375 C 1.738281 0.09375 1.582031 0.0625 1.4375 0 C 1.300781 -0.0507812 1.175781 -0.128906 1.0625 -0.234375 L 1.0625 1.125 L 0.453125 1.125 L 0.453125 -3 L 1.03125 -3 L 1.03125 -2.6875 C 1.15625 -2.800781 1.296875 -2.894531 1.453125 -2.96875 C 1.609375 -3.039062 1.78125 -3.078125 1.96875 -3.078125 C 2.164062 -3.078125 2.332031 -3.035156 2.46875 -2.953125 C 2.613281 -2.878906 2.734375 -2.773438 2.828125 -2.640625 C 2.921875 -2.503906 2.988281 -2.335938 3.03125 -2.140625 C 3.082031 -1.953125 3.109375 -1.742188 3.109375 -1.515625 Z M 2.484375 -1.5 C 2.484375 -1.84375 2.425781 -2.097656 2.3125 -2.265625 C 2.195312 -2.441406 2.03125 -2.53125 1.8125 -2.53125 C 1.75 -2.53125 1.679688 -2.519531 1.609375 -2.5 C 1.535156 -2.488281 1.46875 -2.46875 1.40625 -2.4375 C 1.34375 -2.40625 1.28125 -2.367188 1.21875 -2.328125 C 1.164062 -2.285156 1.113281 -2.242188 1.0625 -2.203125 L 1.0625 -0.75 C 1.101562 -0.707031 1.148438 -0.664062 1.203125 -0.625 C 1.265625 -0.59375 1.328125 -0.5625 1.390625 -0.53125 C 1.453125 -0.507812 1.515625 -0.488281 1.578125 -0.46875 C 1.640625 -0.457031 1.703125 -0.453125 1.765625 -0.453125 C 1.867188 -0.453125 1.960938 -0.472656 2.046875 -0.515625 C 2.128906 -0.554688 2.203125 -0.617188 2.265625 -0.703125 C 2.328125 -0.785156 2.378906 -0.894531 2.421875 -1.03125 C 2.460938 -1.164062 2.484375 -1.320312 2.484375 -1.5 Z M 2.484375 -1.5 "/></g></g></g><g fill="#000000" fill-opacity="1"><g transform="translate(115.053061, 38.943235)"><g><path d="M 0.9375 -1.359375 C 0.9375 -1.210938 0.945312 -1.082031 0.96875 -0.96875 C 1 -0.851562 1.046875 -0.753906 1.109375 -0.671875 C 1.171875 -0.597656 1.253906 -0.539062 1.359375 -0.5 C 1.460938 -0.457031 1.585938 -0.4375 1.734375 -0.4375 C 1.867188 -0.4375 1.988281 -0.457031 2.09375 -0.5 C 2.195312 -0.550781 2.296875 -0.632812 2.390625 -0.75 L 2.859375 -0.4375 C 2.796875 -0.351562 2.726562 -0.273438 2.65625 -0.203125 C 2.59375 -0.140625 2.515625 -0.0859375 2.421875 -0.046875 C 2.328125 -0.00390625 2.21875 0.0234375 2.09375 0.046875 C 1.976562 0.078125 1.84375 0.09375 1.6875 0.09375 C 1.21875 0.09375 0.867188 -0.0351562 0.640625 -0.296875 C 0.410156 -0.566406 0.296875 -0.957031 0.296875 -1.46875 C 0.296875 -1.707031 0.316406 -1.925781 0.359375 -2.125 C 0.410156 -2.320312 0.488281 -2.488281 0.59375 -2.625 C 0.707031 -2.769531 0.847656 -2.878906 1.015625 -2.953125 C 1.191406 -3.035156 1.40625 -3.078125 1.65625 -3.078125 C 1.882812 -3.078125 2.078125 -3.039062 2.234375 -2.96875 C 2.390625 -2.90625 2.515625 -2.8125 2.609375 -2.6875 C 2.710938 -2.570312 2.785156 -2.425781 2.828125 -2.25 C 2.878906 -2.082031 2.90625 -1.894531 2.90625 -1.6875 L 2.90625 -1.359375 Z M 2.296875 -1.8125 C 2.296875 -2.0625 2.242188 -2.25 2.140625 -2.375 C 2.035156 -2.507812 1.867188 -2.578125 1.640625 -2.578125 C 1.523438 -2.578125 1.425781 -2.5625 1.34375 -2.53125 C 1.269531 -2.5 1.203125 -2.445312 1.140625 -2.375 C 1.085938 -2.3125 1.046875 -2.234375 1.015625 -2.140625 C 0.984375 -2.046875 0.957031 -1.9375 0.9375 -1.8125 Z M 2.296875 -1.8125 "/></g></g></g><g fill="#000000" fill-opacity="1"><g transform="translate(118.219969, 38.943235)"><g><path d="M 2.15625 -2.390625 C 2.132812 -2.398438 2.097656 -2.410156 2.046875 -2.421875 C 1.992188 -2.429688 1.941406 -2.4375 1.890625 -2.4375 C 1.804688 -2.4375 1.726562 -2.425781 1.65625 -2.40625 C 1.582031 -2.382812 1.507812 -2.351562 1.4375 -2.3125 C 1.375 -2.269531 1.3125 -2.222656 1.25 -2.171875 C 1.1875 -2.117188 1.125 -2.0625 1.0625 -2 L 1.0625 0 L 0.453125 0 L 0.453125 -3 L 1.0625 -3 L 1.0625 -2.53125 C 1.125 -2.601562 1.1875 -2.671875 1.25 -2.734375 C 1.320312 -2.796875 1.394531 -2.847656 1.46875 -2.890625 C 1.550781 -2.929688 1.632812 -2.960938 1.71875 -2.984375 C 1.800781 -3.015625 1.882812 -3.03125 1.96875 -3.03125 C 2.039062 -3.03125 2.101562 -3.023438 2.15625 -3.015625 C 2.207031 -3.003906 2.25 -2.992188 2.28125 -2.984375 Z M 2.15625 -2.390625 "/></g></g></g><g clip-path="url(#fffc711156)"><path fill="#ffb923" d="M 173.738281 23.316406 C 173.898438 23.261719 174.0625 23.222656 174.234375 23.207031 C 174.402344 23.191406 174.574219 23.191406 174.742188 23.214844 C 174.910156 23.238281 175.074219 23.28125 175.234375 23.34375 C 175.394531 23.40625 175.542969 23.488281 175.683594 23.585938 C 175.824219 23.683594 175.949219 23.796875 176.0625 23.925781 C 176.175781 24.054688 176.273438 24.191406 176.351562 24.34375 C 176.429688 24.496094 176.492188 24.652344 176.535156 24.820312 C 176.574219 24.984375 176.597656 25.152344 176.601562 25.324219 L 176.601562 29.53125 C 176.601562 30.0625 176.519531 30.578125 176.359375 31.082031 C 176.199219 31.585938 175.964844 32.054688 175.660156 32.488281 C 175.351562 32.917969 174.988281 33.292969 174.566406 33.613281 C 174.144531 33.929688 173.683594 34.175781 173.183594 34.351562 L 146.746094 43.640625 C 146.582031 43.695312 146.417969 43.734375 146.246094 43.75 C 146.074219 43.765625 145.902344 43.761719 145.734375 43.738281 C 145.5625 43.714844 145.398438 43.671875 145.238281 43.605469 C 145.078125 43.542969 144.929688 43.460938 144.789062 43.363281 C 144.648438 43.261719 144.523438 43.148438 144.410156 43.019531 C 144.296875 42.890625 144.199219 42.746094 144.121094 42.59375 C 144.042969 42.441406 143.984375 42.28125 143.941406 42.117188 C 143.902344 41.949219 143.882812 41.777344 143.882812 41.605469 L 143.882812 36.027344 C 143.878906 35.695312 143.929688 35.375 144.027344 35.0625 C 144.125 34.746094 144.269531 34.457031 144.460938 34.1875 C 144.652344 33.917969 144.878906 33.6875 145.140625 33.488281 C 145.40625 33.289062 145.691406 33.136719 146.003906 33.03125 L 161.101562 27.722656 Z M 173.738281 23.316406 " fill-opacity="1" fill-rule="nonzero"/></g><g clip-path="url(#e6a91c66a5)"><path fill="#ffb923" d="M 143.882812 13.835938 C 143.882812 13.664062 143.902344 13.496094 143.945312 13.328125 C 143.984375 13.160156 144.046875 13 144.125 12.847656 C 144.203125 12.695312 144.300781 12.554688 144.414062 12.425781 C 144.523438 12.296875 144.652344 12.183594 144.792969 12.082031 C 144.929688 11.984375 145.082031 11.902344 145.242188 11.839844 C 145.398438 11.777344 145.566406 11.734375 145.734375 11.710938 C 145.90625 11.683594 146.074219 11.683594 146.246094 11.699219 C 146.417969 11.714844 146.582031 11.753906 146.746094 11.808594 L 168.558594 19.464844 C 168.847656 19.578125 168.992188 19.785156 168.992188 20.09375 C 168.992188 20.40625 168.847656 20.613281 168.558594 20.722656 L 159.871094 23.789062 L 156.722656 24.890625 C 155.503906 25.316406 154.285156 25.316406 153.070312 24.890625 L 145.996094 22.410156 C 145.6875 22.304688 145.398438 22.148438 145.136719 21.953125 C 144.875 21.753906 144.648438 21.523438 144.457031 21.253906 C 144.269531 20.984375 144.125 20.691406 144.027344 20.378906 C 143.929688 20.066406 143.878906 19.746094 143.882812 19.414062 Z M 143.882812 13.835938 " fill-opacity="1" fill-rule="nonzero"/></g></svg>